BhuTukaOne-LightExtended.ufo
<glyph name="exclam" format="1">
  <advance width="356"/>
  <unicode hex="0021"/>
  <outline>
    <contour>
      <point x="202" y="148" type="line"/>
      <point x="207" y="271" type="line" smooth="yes"/>
      <point x="211" y="423"/>
      <point x="225" y="525"/>
      <point x="225" y="542" type="curve"/>
      <point x="225" y="560"/>
      <point x="216" y="574"/>
      <point x="194" y="574" type="curve"/>
      <point x="172" y="574"/>
      <point x="164" y="560"/>
      <point x="164" y="542" type="curve"/>
      <point x="164" y="525"/>
      <point x="176" y="424"/>
      <point x="181" y="271" type="curve" smooth="yes"/>
      <point x="185" y="148" type="line"/>
    </contour>
    <contour>
      <point x="162" y="53"/>
      <point x="144" y="40"/>
      <point x="144" y="21" type="curve"/>
      <point x="144" y="3"/>
      <point x="162" y="-11"/>
      <point x="194" y="-11" type="curve"/>
      <point x="226" y="-11"/>
      <point x="242" y="3"/>
      <point x="242" y="21" type="curve"/>
      <point x="242" y="40"/>
      <point x="226" y="53"/>
      <point x="194" y="53" type="curve"/>
    </contour>
  </outline>
</glyph>
<glyph name="dollar" format="1">
  <advance width="821"/>
  <unicode hex="0024"/>
  <outline>
    <contour>
      <point x="659" y="7"/>
      <point x="753" y="46"/>
      <point x="753" y="120" type="curve" smooth="yes"/>
      <point x="753" y="201"/>
      <point x="655" y="229"/>
      <point x="426" y="246" type="curve" smooth="yes"/>
      <point x="211" y="264"/>
      <point x="136" y="293"/>
      <point x="136" y="350" type="curve" smooth="yes"/>
      <point x="136" y="411"/>
      <point x="217" y="440"/>
      <point x="327" y="440" type="curve" smooth="yes"/>
      <point x="485" y="440"/>
      <point x="621" y="382"/>
      <point x="718" y="289" type="curve"/>
      <point x="718" y="289" type="line"/>
      <point x="718" y="464" type="line"/>
      <point x="695" y="464" type="line"/>
      <point x="695" y="325" type="line"/>
      <point x="709" y="325" type="line"/>
      <point x="637" y="391"/>
      <point x="503" y="464"/>
      <point x="329" y="464" type="curve" smooth="yes"/>
      <point x="197" y="464"/>
      <point x="111" y="423"/>
      <point x="111" y="350" type="curve" smooth="yes"/>
      <point x="111" y="281"/>
      <point x="189" y="240"/>
      <point x="425" y="223" type="curve" smooth="yes"/>
      <point x="641" y="205"/>
      <point x="729" y="184"/>
      <point x="729" y="120" type="curve" smooth="yes"/>
      <point x="729" y="59"/>
      <point x="643" y="30"/>
      <point x="538" y="28" type="curve" smooth="yes"/>
      <point x="410" y="24"/>
      <point x="206" y="85"/>
      <point x="109" y="190" type="curve"/>
      <point x="109" y="190" type="line"/>
      <point x="109" y="7" type="line"/>
      <point x="132" y="7" type="line"/>
      <point x="132" y="152" type="line"/>
      <point x="117" y="152" type="line"/>
      <point x="191" y="77"/>
      <point x="385" y="2"/>
      <point x="537" y="5" type="curve" smooth="yes"/>
    </contour>
    <contour>
      <point x="436" y="-112" type="line"/>
      <point x="436" y="24" type="line"/>
      <point x="436" y="33" type="line"/>
      <point x="436" y="442" type="line"/>
      <point x="436" y="450" type="line"/>
      <point x="436" y="581" type="line"/>
      <point x="413" y="581" type="line"/>
      <point x="413" y="452" type="line"/>
      <point x="413" y="444" type="line"/>
      <point x="413" y="34" type="line"/>
      <point x="413" y="27" type="line"/>
      <point x="413" y="-112" type="line"/>
    </contour>
  </outline>
</glyph>
<glyph name="A" format="1">
  <advance width="1028"/>
  <unicode hex="0041"/>
  <outline>
    <contour>
      <point x="180" y="12" type="line"/>
      <point x="516" y="502" type="line"/>
      <point x="512" y="502" type="line"/>
      <point x="849" y="12" type="line"/>
      <point x="878" y="12" type="line"/>
      <point x="533" y="510" type="line" smooth="yes"/>
      <point x="495" y="510" type="line"/>
      <point x="150" y="12" type="line"/>
    </contour>
    <contour>
      <point x="335" y="-1" type="line"/>
      <point x="335" y="22" type="line"/>
      <point x="-5" y="22" type="line"/>
      <point x="-5" y="-1" type="line"/>
    </contour>
    <contour>
      <point x="733" y="199" type="line"/>
      <point x="717" y="221" type="line"/>
      <point x="309" y="221" type="line"/>
      <point x="291" y="199" type="line"/>
    </contour>
    <contour>
      <point x="1033" y="-1" type="line"/>
      <point x="1033" y="22" type="line"/>
      <point x="693" y="22" type="line"/>
      <point x="693" y="-1" type="line"/>
    </contour>
    <contour>
      <point x="702" y="497" type="line"/>
      <point x="702" y="520" type="line"/>
      <point x="325" y="520" type="line"/>
      <point x="325" y="497" type="line"/>
    </contour>
    <contour>
      <point x="605" y="751" type="move" name="hook"/>
    </contour>
    <contour>
      <point x="1033" y="165" type="move" name="ogonek"/>
    </contour>
    <contour>
      <point x="513" y="686" type="move" name="top"/>
    </contour>
    <contour>
      <point x="515" y="165" type="move" name="bottom"/>
    </contour>
  </outline>
</glyph>
<glyph name="r" format="1">
  <advance width="727"/>
  <unicode hex="0072"/>
  <outline>
    <contour>
      <point x="377" y="285"/>
      <point x="499" y="343"/>
      <point x="627" y="343" type="curve"/>
      <point x="627" y="218" type="line"/>
      <point x="652" y="218" type="line"/>
      <point x="652" y="366" type="line"/>
      <point x="627" y="366" type="line"/>
      <point x="483" y="366"/>
      <point x="367" y="305"/>
      <point x="245" y="210" type="curve"/>
      <point x="245" y="187" type="line"/>
    </contour>
    <contour>
      <point x="441" y="-1" type="line"/>
      <point x="441" y="22" type="line"/>
      <point x="50" y="22" type="line"/>
      <point x="50" y="-1" type="line"/>
    </contour>
    <contour>
      <point x="258" y="-1" type="line"/>
      <point x="258" y="357" type="line"/>
      <point x="233" y="357" type="line"/>
      <point x="233" y="-1" type="line"/>
    </contour>
    <contour>
      <point x="258" y="333" type="line"/>
      <point x="258" y="357" type="line"/>
      <point x="50" y="357" type="line"/>
      <point x="50" y="333" type="line"/>
    </contour>
    <contour>
      <point x="356" y="523" type="move" name="top"/>
    </contour>
    <contour>
      <point x="356" y="165" type="move" name="bottom"/>
    </contour>
  </outline>
</glyph>
<glyph name="v" format="1">
  <advance width="755"/>
  <unicode hex="0076"/>
  <outline>
    <contour>
      <point x="378" y="-11" type="line"/>
      <point x="637" y="348" type="line"/>
      <point x="610" y="348" type="line"/>
      <point x="376" y="22" type="line"/>
      <point x="142" y="348" type="line"/>
      <point x="112" y="348" type="line"/>
      <point x="372" y="-11" type="line"/>
    </contour>
    <contour>
      <point x="274" y="333" type="line"/>
      <point x="274" y="357" type="line"/>
      <point x="0" y="357" type="line"/>
      <point x="0" y="333" type="line"/>
    </contour>
    <contour>
      <point x="755" y="333" type="line"/>
      <point x="755" y="357" type="line"/>
      <point x="481" y="357" type="line"/>
      <point x="481" y="333" type="line"/>
    </contour>
    <contour>
      <point x="378" y="513" type="move" name="top"/>
    </contour>
    <contour>
      <point x="376" y="165" type="move" name="bottom"/>
    </contour>
  </outline>
</glyph>
<glyph name="sterling" format="1">
  <advance width="768"/>
  <unicode hex="00A3"/>
  <outline>
    <contour>
      <point x="87" y="-11" type="line" smooth="yes"/>
      <point x="197" y="-11"/>
      <point x="271" y="42"/>
      <point x="271" y="117" type="curve" smooth="yes"/>
      <point x="271" y="204"/>
      <point x="189" y="255"/>
      <point x="189" y="335" type="curve" smooth="yes"/>
      <point x="189" y="411"/>
      <point x="269" y="457"/>
      <point x="375" y="457" type="curve" smooth="yes"/>
      <point x="492" y="457"/>
      <point x="592" y="424"/>
      <point x="689" y="325" type="curve"/>
      <point x="695" y="329" type="line"/>
      <point x="695" y="480" type="line"/>
      <point x="672" y="480" type="line"/>
      <point x="672" y="360" type="line"/>
      <point x="686" y="358" type="line"/>
      <point x="613" y="430"/>
      <point x="511" y="480"/>
      <point x="376" y="480" type="curve" smooth="yes"/>
      <point x="248" y="480"/>
      <point x="164" y="422"/>
      <point x="164" y="335" type="curve" smooth="yes"/>
      <point x="164" y="249"/>
      <point x="247" y="192"/>
      <point x="247" y="118" type="curve" smooth="yes"/>
      <point x="247" y="50"/>
      <point x="176" y="10"/>
      <point x="87" y="10" type="curve" smooth="yes"/>
      <point x="60" y="10" type="line"/>
      <point x="60" y="-11" type="line"/>
    </contour>
    <contour>
      <point x="583" y="165" type="line"/>
      <point x="583" y="188" type="line"/>
      <point x="60" y="188" type="line"/>
      <point x="60" y="165" type="line"/>
    </contour>
    <contour>
      <point x="657" y="-11"/>
      <point x="714" y="40"/>
      <point x="727" y="120" type="curve"/>
      <point x="704" y="124" type="line"/>
      <point x="692" y="46"/>
      <point x="626" y="12"/>
      <point x="553" y="12" type="curve" smooth="yes"/>
      <point x="475" y="12"/>
      <point x="347" y="66"/>
      <point x="261" y="114" type="curve"/>
      <point x="252" y="95" type="line"/>
      <point x="337" y="45"/>
      <point x="465" y="-11"/>
      <point x="553" y="-11" type="curve" smooth="yes"/>
    </contour>
    <contour>
      <point x="585" y="290" type="line"/>
      <point x="585" y="313" type="line"/>
      <point x="62" y="313" type="line"/>
      <point x="62" y="290" type="line"/>
    </contour>
  </outline>
</glyph>
<glyph name="copyright" format="1">
  <advance width="958"/>
  <unicode hex="00A9"/>
  <outline>
    <contour>
      <point x="724" y="-167"/>
      <point x="897" y="-21"/>
      <point x="897" y="176" type="curve"/>
      <point x="897" y="374"/>
      <point x="724" y="519"/>
      <point x="478" y="519" type="curve"/>
      <point x="234" y="519"/>
      <point x="60" y="374"/>
      <point x="60" y="176" type="curve"/>
      <point x="60" y="-21"/>
      <point x="234" y="-167"/>
      <point x="478" y="-167" type="curve"/>
    </contour>
    <contour>
      <point x="584" y="12"/>
      <point x="657" y="59"/>
      <point x="701" y="114" type="curve"/>
      <point x="683" y="129" type="line"/>
      <point x="643" y="78"/>
      <point x="565" y="34"/>
      <point x="460" y="34" type="curve" smooth="yes"/>
      <point x="344" y="35"/>
      <point x="270" y="91"/>
      <point x="270" y="171" type="curve" smooth="yes"/>
      <point x="270" y="255"/>
      <point x="360" y="310"/>
      <point x="462" y="310" type="curve" smooth="yes"/>
      <point x="553" y="310"/>
      <point x="634" y="278"/>
      <point x="695" y="200" type="curve"/>
      <point x="701" y="202" type="line"/>
      <point x="701" y="334" type="line"/>
      <point x="678" y="334" type="line"/>
      <point x="678" y="240" type="line"/>
      <point x="692" y="234" type="line"/>
      <point x="649" y="284"/>
      <point x="568" y="334"/>
      <point x="465" y="334" type="curve" smooth="yes"/>
      <point x="344" y="334"/>
      <point x="245" y="271"/>
      <point x="245" y="171" type="curve" smooth="yes"/>
      <point x="245" y="70"/>
      <point x="333" y="12"/>
      <point x="460" y="12" type="curve" smooth="yes"/>
    </contour>
    <contour>
      <point x="245" y="-143"/>
      <point x="85" y="-3"/>
      <point x="85" y="176" type="curve"/>
      <point x="85" y="356"/>
      <point x="245" y="496"/>
      <point x="478" y="496" type="curve"/>
      <point x="712" y="496"/>
      <point x="872" y="356"/>
      <point x="872" y="176" type="curve"/>
      <point x="872" y="-3"/>
      <point x="712" y="-143"/>
      <point x="478" y="-143" type="curve"/>
    </contour>
  </outline>
</glyph>
<glyph name="onehalf" format="1">
  <advance width="975"/>
  <unicode hex="00BD"/>
  <outline>
    <contour>
      <point x="116" y="392"/>
      <point x="172" y="420"/>
      <point x="192" y="472" type="curve"/>
      <point x="172" y="480" type="line"/>
      <point x="157" y="435"/>
      <point x="107" y="416"/>
      <point x="56" y="410" type="curve"/>
      <point x="59" y="386" type="line"/>
    </contour>
    <contour>
      <point x="290" y="198" type="line"/>
      <point x="290" y="218" type="line"/>
      <point x="55" y="218" type="line"/>
      <point x="55" y="198" type="line"/>
    </contour>
    <contour>
      <point x="195" y="198" type="line"/>
      <point x="195" y="480" type="line"/>
      <point x="172" y="480" type="line"/>
      <point x="172" y="198" type="line"/>
    </contour>
    <contour>
      <point x="255" y="-56" type="line"/>
      <point x="280" y="-71" type="line"/>
      <point x="461" y="239" type="line"/>
      <point x="651" y="544" type="line"/>
      <point x="625" y="559" type="line"/>
      <point x="444" y="249" type="line"/>
    </contour>
    <contour>
      <point x="898" y="21" type="line"/>
      <point x="594" y="21" type="line"/>
      <point x="594" y="66"/>
      <point x="644" y="91"/>
      <point x="745" y="109" type="curve" smooth="yes"/>
      <point x="845" y="126"/>
      <point x="909" y="146"/>
      <point x="909" y="202" type="curve" smooth="yes"/>
      <point x="909" y="255"/>
      <point x="849" y="282"/>
      <point x="764" y="282" type="curve" smooth="yes"/>
      <point x="691" y="282"/>
      <point x="625" y="258"/>
      <point x="576" y="224" type="curve"/>
      <point x="589" y="205" type="line"/>
      <point x="626" y="234"/>
      <point x="701" y="262"/>
      <point x="764" y="262" type="curve" smooth="yes"/>
      <point x="836" y="262"/>
      <point x="885" y="240"/>
      <point x="886" y="202" type="curve" smooth="yes"/>
      <point x="887" y="162"/>
      <point x="837" y="148"/>
      <point x="738" y="129" type="curve" smooth="yes"/>
      <point x="625" y="108"/>
      <point x="571" y="78"/>
      <point x="571" y="18" type="curve" smooth="yes"/>
      <point x="571" y="-1" type="line"/>
      <point x="920" y="-1" type="line"/>
      <point x="920" y="107" type="line"/>
      <point x="898" y="107" type="line"/>
    </contour>
  </outline>
</glyph>
<glyph name="Atilde" format="1">
  <advance width="1028"/>
  <unicode hex="00C3"/>
  <outline>
    <contour>
      <point x="180" y="12" type="line"/>
      <point x="516" y="502" type="line"/>
      <point x="512" y="502" type="line"/>
      <point x="849" y="12" type="line"/>
      <point x="878" y="12" type="line"/>
      <point x="533" y="510" type="line" smooth="yes"/>
      <point x="495" y="510" type="line"/>
      <point x="150" y="12" type="line"/>
    </contour>
    <contour>
      <point x="335" y="-1" type="line"/>
      <point x="335" y="22" type="line"/>
      <point x="-5" y="22" type="line"/>
      <point x="-5" y="-1" type="line"/>
    </contour>
    <contour>
      <point x="733" y="199" type="line"/>
      <point x="717" y="221" type="line"/>
      <point x="309" y="221" type="line"/>
      <point x="291" y="199" type="line"/>
    </contour>
    <contour>
      <point x="1033" y="-1" type="line"/>
      <point x="1033" y="22" type="line"/>
      <point x="693" y="22" type="line"/>
      <point x="693" y="-1" type="line"/>
    </contour>
    <contour>
      <point x="702" y="497" type="line"/>
      <point x="702" y="520" type="line"/>
      <point x="325" y="520" type="line"/>
      <point x="325" y="497" type="line"/>
    </contour>
    <contour>
      <point x="667" y="626"/>
      <point x="705" y="672"/>
      <point x="716" y="740" type="curve"/>
      <point x="695" y="743" type="line"/>
      <point x="683" y="676"/>
      <point x="648" y="649"/>
      <point x="611" y="649" type="curve" smooth="yes"/>
      <point x="577" y="649"/>
      <point x="546" y="670"/>
      <point x="513" y="693" type="curve" smooth="yes"/>
      <point x="478" y="717"/>
      <point x="445" y="743"/>
      <point x="400" y="743" type="curve" smooth="yes"/>
      <point x="340" y="743"/>
      <point x="302" y="697"/>
      <point x="291" y="629" type="curve"/>
      <point x="312" y="625" type="line"/>
      <point x="323" y="693"/>
      <point x="358" y="721"/>
      <point x="397" y="721" type="curve" smooth="yes"/>
      <point x="432" y="721"/>
      <point x="462" y="700"/>
      <point x="494" y="677" type="curve" smooth="yes"/>
      <point x="529" y="652"/>
      <point x="564" y="626"/>
      <point x="608" y="626" type="curve" smooth="yes"/>
    </contour>
    <contour>
      <point x="605" y="751" type="move" name="hook"/>
    </contour>
    <contour>
      <point x="1033" y="165" type="move" name="ogonek"/>
    </contour>
    <contour>
      <point x="513" y="686" type="move" name="top"/>
    </contour>
    <contour>
      <point x="515" y="165" type="move" name="bottom"/>
    </contour>
  </outline>
</glyph>
<glyph name="Aring" format="1">
  <advance width="1028"/>
  <unicode hex="00C5"/>
  <outline>
    <contour>
      <point x="180" y="12" type="line"/>
      <point x="516" y="502" type="line"/>
      <point x="512" y="502" type="line"/>
      <point x="849" y="12" type="line"/>
      <point x="878" y="12" type="line"/>
      <point x="533" y="510" type="line" smooth="yes"/>
      <point x="495" y="510" type="line"/>
      <point x="150" y="12" type="line"/>
    </contour>
    <contour>
      <point x="335" y="-1" type="line"/>
      <point x="335" y="22" type="line"/>
      <point x="-5" y="22" type="line"/>
      <point x="-5" y="-1" type="line"/>
    </contour>
    <contour>
      <point x="733" y="199" type="line"/>
      <point x="717" y="221" type="line"/>
      <point x="309" y="221" type="line"/>
      <point x="291" y="199" type="line"/>
    </contour>
    <contour>
      <point x="1033" y="-1" type="line"/>
      <point x="1033" y="22" type="line"/>
      <point x="693" y="22" type="line"/>
      <point x="693" y="-1" type="line"/>
    </contour>
    <contour>
      <point x="702" y="497" type="line"/>
      <point x="702" y="520" type="line"/>
      <point x="325" y="520" type="line"/>
      <point x="325" y="497" type="line"/>
    </contour>
    <contour>
      <point x="592" y="615"/>
      <point x="648" y="661"/>
      <point x="648" y="721" type="curve"/>
      <point x="648" y="784"/>
      <point x="592" y="826"/>
      <point x="513" y="826" type="curve"/>
      <point x="438" y="826"/>
      <point x="376" y="784"/>
      <point x="376" y="721" type="curve"/>
      <point x="376" y="661"/>
      <point x="438" y="615"/>
      <point x="513" y="615" type="curve"/>
    </contour>
    <contour>
      <point x="448" y="636"/>
      <point x="400" y="675"/>
      <point x="400" y="721" type="curve"/>
      <point x="400" y="769"/>
      <point x="448" y="804"/>
      <point x="513" y="804" type="curve"/>
      <point x="581" y="804"/>
      <point x="625" y="769"/>
      <point x="625" y="721" type="curve"/>
      <point x="625" y="675"/>
      <point x="581" y="636"/>
      <point x="513" y="636" type="curve"/>
    </contour>
    <contour>
      <point x="605" y="751" type="move" name="hook"/>
    </contour>
    <contour>
      <point x="1033" y="165" type="move" name="ogonek"/>
    </contour>
    <contour>
      <point x="513" y="686" type="move" name="top"/>
    </contour>
    <contour>
      <point x="515" y="165" type="move" name="bottom"/>
    </contour>
  </outline>
</glyph>
<glyph name="Idieresis" format="1">
  <advance width="502"/>
  <unicode hex="00CF"/>
  <outline>
    <contour>
      <point x="264" y="12" type="line" smooth="yes"/>
      <point x="264" y="507" type="line" smooth="yes"/>
      <point x="239" y="507" type="line" smooth="yes"/>
      <point x="239" y="12" type="line" smooth="yes"/>
    </contour>
    <contour>
      <point x="446" y="-1" type="line" smooth="yes"/>
      <point x="446" y="22" type="line" smooth="yes"/>
      <point x="56" y="22" type="line" smooth="yes"/>
      <point x="56" y="-1" type="line" smooth="yes"/>
    </contour>
    <contour>
      <point x="446" y="496" type="line" smooth="yes"/>
      <point x="446" y="520" type="line" smooth="yes"/>
      <point x="56" y="520" type="line" smooth="yes"/>
      <point x="56" y="496" type="line" smooth="yes"/>
    </contour>
    <contour>
      <point x="388" y="635"/>
      <point x="404" y="648"/>
      <point x="404" y="664" type="curve"/>
      <point x="404" y="681"/>
      <point x="388" y="693"/>
      <point x="359" y="693" type="curve"/>
      <point x="331" y="693"/>
      <point x="314" y="681"/>
      <point x="314" y="664" type="curve"/>
      <point x="314" y="648"/>
      <point x="331" y="635"/>
      <point x="359" y="635" type="curve"/>
    </contour>
    <contour>
      <point x="166" y="635"/>
      <point x="182" y="648"/>
      <point x="182" y="664" type="curve"/>
      <point x="182" y="681"/>
      <point x="166" y="693"/>
      <point x="137" y="693" type="curve"/>
      <point x="108" y="693"/>
      <point x="92" y="681"/>
      <point x="92" y="664" type="curve"/>
      <point x="92" y="648"/>
      <point x="108" y="635"/>
      <point x="137" y="635" type="curve"/>
    </contour>
    <contour>
      <point x="446" y="165" type="move" name="ogonek"/>
    </contour>
    <contour>
      <point x="252" y="165" type="move" name="bottom"/>
    </contour>
    <contour>
      <point x="252" y="686" type="move" name="top"/>
    </contour>
  </outline>
</glyph>
<glyph name="Ograve" format="1">
  <advance width="919"/>
  <unicode hex="00D2"/>
  <outline>
    <contour>
      <point x="676" y="-11"/>
      <point x="844" y="88"/>
      <point x="844" y="259" type="curve"/>
      <point x="844" y="431"/>
      <point x="676" y="531"/>
      <point x="460" y="531" type="curve"/>
      <point x="242" y="531"/>
      <point x="75" y="431"/>
      <point x="75" y="259" type="curve"/>
      <point x="75" y="88"/>
      <point x="242" y="-11"/>
      <point x="460" y="-11" type="curve"/>
    </contour>
    <contour>
      <point x="252" y="12"/>
      <point x="100" y="105"/>
      <point x="100" y="259" type="curve"/>
      <point x="100" y="414"/>
      <point x="252" y="507"/>
      <point x="460" y="507" type="curve"/>
      <point x="666" y="507"/>
      <point x="819" y="414"/>
      <point x="819" y="259" type="curve"/>
      <point x="819" y="105"/>
      <point x="666" y="12"/>
      <point x="460" y="12" type="curve"/>
    </contour>
    <contour>
      <point x="519" y="595" type="line"/>
      <point x="277" y="725" type="line"/>
      <point x="293" y="753" type="line"/>
      <point x="528" y="611" type="line"/>
    </contour>
    <contour>
      <point x="460" y="410" type="move" name="center"/>
    </contour>
    <contour>
      <point x="461" y="156" type="move" name="ogonek"/>
    </contour>
    <contour>
      <point x="460" y="697" type="move" name="top"/>
    </contour>
    <contour>
      <point x="894" y="656" type="move" name="topright"/>
    </contour>
    <contour>
      <point x="460" y="155" type="move" name="bottom"/>
    </contour>
  </outline>
</glyph>
<glyph name="germandbls" format="1">
  <advance width="851"/>
  <unicode hex="00DF"/>
  <outline>
    <contour>
      <point x="744" y="-11"/>
      <point x="806" y="24"/>
      <point x="806" y="81" type="curve" smooth="yes"/>
      <point x="806" y="154"/>
      <point x="717" y="169"/>
      <point x="601" y="180" type="curve" smooth="yes"/>
      <point x="477" y="192"/>
      <point x="420" y="206"/>
      <point x="420" y="251" type="curve" smooth="yes"/>
      <point x="420" y="301"/>
      <point x="492" y="316"/>
      <point x="562" y="329" type="curve" smooth="yes"/>
      <point x="669" y="347"/>
      <point x="732" y="366"/>
      <point x="732" y="442" type="curve" smooth="yes"/>
      <point x="732" y="522"/>
      <point x="609" y="585"/>
      <point x="436" y="585" type="curve" smooth="yes"/>
      <point x="271" y="585"/>
      <point x="211" y="505"/>
      <point x="211" y="406" type="curve" smooth="yes"/>
      <point x="211" y="-1" type="line"/>
      <point x="236" y="-1" type="line"/>
      <point x="236" y="408" type="line" smooth="yes"/>
      <point x="236" y="495"/>
      <point x="287" y="562"/>
      <point x="435" y="562" type="curve" smooth="yes"/>
      <point x="596" y="562"/>
      <point x="707" y="509"/>
      <point x="707" y="442" type="curve" smooth="yes"/>
      <point x="707" y="381"/>
      <point x="648" y="368"/>
      <point x="557" y="351" type="curve" smooth="yes"/>
      <point x="450" y="333"/>
      <point x="394" y="308"/>
      <point x="394" y="250" type="curve" smooth="yes"/>
      <point x="394" y="191"/>
      <point x="456" y="167"/>
      <point x="601" y="155" type="curve" smooth="yes"/>
      <point x="709" y="146"/>
      <point x="782" y="132"/>
      <point x="782" y="80" type="curve" smooth="yes"/>
      <point x="782" y="37"/>
      <point x="720" y="10"/>
      <point x="651" y="10" type="curve" smooth="yes"/>
      <point x="568" y="10"/>
      <point x="448" y="49"/>
      <point x="378" y="135" type="curve"/>
      <point x="378" y="135" type="line"/>
      <point x="378" y="-1" type="line"/>
      <point x="401" y="-1" type="line"/>
      <point x="401" y="98" type="line"/>
      <point x="385" y="105" type="line"/>
      <point x="432" y="42"/>
      <point x="546" y="-11"/>
      <point x="651" y="-11" type="curve" smooth="yes"/>
    </contour>
    <contour>
      <point x="220" y="-1" type="line"/>
      <point x="220" y="22" type="line"/>
      <point x="50" y="22" type="line"/>
      <point x="50" y="-1" type="line"/>
    </contour>
    <contour>
      <point x="220" y="334" type="line"/>
      <point x="220" y="357" type="line"/>
      <point x="50" y="357" type="line"/>
      <point x="50" y="334" type="line"/>
    </contour>
  </outline>
</glyph>
<glyph name="atilde" format="1">
  <advance width="807"/>
  <unicode hex="00E3"/>
  <outline>
    <contour>
      <point x="743" y="-11"/>
      <point x="771" y="0"/>
      <point x="794" y="18" type="curve"/>
      <point x="781" y="37" type="line"/>
      <point x="762" y="21"/>
      <point x="741" y="12"/>
      <point x="713" y="12" type="curve" smooth="yes"/>
      <point x="680" y="12"/>
      <point x="649" y="37"/>
      <point x="649" y="92" type="curve" smooth="yes"/>
      <point x="649" y="196" type="line" smooth="yes"/>
      <point x="649" y="297"/>
      <point x="574" y="366"/>
      <point x="416" y="366" type="curve" smooth="yes"/>
      <point x="316" y="366"/>
      <point x="214" y="346"/>
      <point x="105" y="309" type="curve"/>
      <point x="112" y="285" type="line"/>
      <point x="215" y="318"/>
      <point x="312" y="343"/>
      <point x="416" y="343" type="curve" smooth="yes"/>
      <point x="561" y="343"/>
      <point x="624" y="281"/>
      <point x="624" y="196" type="curve"/>
      <point x="624" y="92" type="line"/>
      <point x="624" y="27"/>
      <point x="661" y="-11"/>
      <point x="712" y="-11" type="curve" smooth="yes"/>
    </contour>
    <contour>
      <point x="398" y="-11"/>
      <point x="526" y="18"/>
      <point x="635" y="75" type="curve"/>
      <point x="635" y="97" type="line"/>
      <point x="521" y="43"/>
      <point x="396" y="12"/>
      <point x="287" y="12" type="curve" smooth="yes"/>
      <point x="177" y="12"/>
      <point x="116" y="42"/>
      <point x="116" y="94" type="curve" smooth="yes"/>
      <point x="116" y="151"/>
      <point x="197" y="185"/>
      <point x="329" y="185" type="curve" smooth="yes"/>
      <point x="443" y="185"/>
      <point x="550" y="170"/>
      <point x="635" y="152" type="curve"/>
      <point x="635" y="173" type="line"/>
      <point x="550" y="191"/>
      <point x="451" y="208"/>
      <point x="329" y="208" type="curve" smooth="yes"/>
      <point x="181" y="208"/>
      <point x="90" y="167"/>
      <point x="90" y="93" type="curve" smooth="yes"/>
      <point x="90" y="27"/>
      <point x="161" y="-11"/>
      <point x="287" y="-11" type="curve" smooth="yes"/>
    </contour>
    <contour>
      <point x="540" y="473"/>
      <point x="577" y="518"/>
      <point x="588" y="586" type="curve"/>
      <point x="567" y="589" type="line"/>
      <point x="556" y="522"/>
      <point x="521" y="496"/>
      <point x="483" y="496" type="curve" smooth="yes"/>
      <point x="449" y="496"/>
      <point x="418" y="516"/>
      <point x="385" y="539" type="curve" smooth="yes"/>
      <point x="350" y="563"/>
      <point x="318" y="589"/>
      <point x="272" y="589" type="curve" smooth="yes"/>
      <point x="212" y="589"/>
      <point x="175" y="544"/>
      <point x="163" y="475" type="curve"/>
      <point x="185" y="471" type="line"/>
      <point x="195" y="539"/>
      <point x="230" y="567"/>
      <point x="270" y="567" type="curve" smooth="yes"/>
      <point x="305" y="567"/>
      <point x="334" y="547"/>
      <point x="366" y="523" type="curve" smooth="yes"/>
      <point x="401" y="499"/>
      <point x="436" y="473"/>
      <point x="480" y="473" type="curve" smooth="yes"/>
    </contour>
    <contour>
      <point x="794" y="184" type="move" name="ogonek"/>
    </contour>
    <contour>
      <point x="287" y="155" type="move" name="bottom"/>
    </contour>
    <contour>
      <point x="385" y="532" type="move" name="top"/>
    </contour>
  </outline>
</glyph>
<glyph name="Edotaccent" format="1">
  <advance width="995"/>
  <unicode hex="0116"/>
  <outline>
    <contour>
      <point x="864" y="-1" type="line"/>
      <point x="864" y="183" type="line"/>
      <point x="840" y="183" type="line"/>
      <point x="840" y="22" type="line"/>
      <point x="56" y="22" type="line"/>
      <point x="56" y="-1" type="line"/>
    </contour>
    <contour>
      <point x="264" y="12" type="line"/>
      <point x="264" y="507" type="line"/>
      <point x="239" y="507" type="line"/>
      <point x="239" y="12" type="line"/>
    </contour>
    <contour>
      <point x="585" y="260" type="line"/>
      <point x="585" y="284" type="line"/>
      <point x="261" y="284" type="line"/>
      <point x="261" y="260" type="line"/>
    </contour>
    <contour>
      <point x="598" y="152" type="line"/>
      <point x="598" y="392" type="line"/>
      <point x="573" y="392" type="line"/>
      <point x="573" y="152" type="line"/>
    </contour>
    <contour>
      <point x="864" y="336" type="line"/>
      <point x="864" y="520" type="line"/>
      <point x="56" y="520" type="line"/>
      <point x="56" y="496" type="line"/>
      <point x="839" y="496" type="line"/>
      <point x="839" y="336" type="line"/>
    </contour>
    <contour>
      <point x="563" y="634"/>
      <point x="579" y="647"/>
      <point x="579" y="664" type="curve"/>
      <point x="579" y="682"/>
      <point x="563" y="695"/>
      <point x="531" y="695" type="curve"/>
      <point x="502" y="695"/>
      <point x="485" y="682"/>
      <point x="485" y="664" type="curve"/>
      <point x="485" y="647"/>
      <point x="502" y="634"/>
      <point x="531" y="634" type="curve"/>
    </contour>
    <contour>
      <point x="864" y="165" type="move" name="ogonek"/>
    </contour>
    <contour>
      <point x="502" y="165" type="move" name="bottom"/>
    </contour>
    <contour>
      <point x="531" y="686" type="move" name="top"/>
    </contour>
  </outline>
</glyph>
<glyph name="eogonek" format="1">
  <advance width="753"/>
  <unicode hex="0119"/>
  <outline>
    <contour>
      <point x="507" y="-11"/>
      <point x="592" y="21"/>
      <point x="668" y="68" type="curve"/>
      <point x="657" y="88" type="line"/>
      <point x="583" y="42"/>
      <point x="496" y="10"/>
      <point x="371" y="12" type="curve" smooth="yes"/>
      <point x="219" y="13"/>
      <point x="106" y="75"/>
      <point x="106" y="170" type="curve" smooth="yes"/>
      <point x="106" y="280"/>
      <point x="252" y="343"/>
      <point x="401" y="343" type="curve" smooth="yes"/>
      <point x="542" y="343"/>
      <point x="629" y="309"/>
      <point x="629" y="249" type="curve" smooth="yes"/>
      <point x="629" y="186"/>
      <point x="535" y="163"/>
      <point x="415" y="163" type="curve" smooth="yes"/>
      <point x="306" y="163"/>
      <point x="206" y="180"/>
      <point x="100" y="216" type="curve"/>
      <point x="100" y="195" type="line"/>
      <point x="206" y="159"/>
      <point x="306" y="139"/>
      <point x="415" y="139" type="curve" smooth="yes"/>
      <point x="550" y="139"/>
      <point x="654" y="171"/>
      <point x="654" y="249" type="curve" smooth="yes"/>
      <point x="654" y="323"/>
      <point x="553" y="366"/>
      <point x="401" y="366" type="curve" smooth="yes"/>
      <point x="241" y="366"/>
      <point x="81" y="297"/>
      <point x="81" y="170" type="curve" smooth="yes"/>
      <point x="81" y="56"/>
      <point x="209" y="-11"/>
      <point x="371" y="-11" type="curve" smooth="yes"/>
    </contour>
    <contour>
      <point x="660" y="78" type="line"/>
      <point x="597" y="62"/>
      <point x="559" y="26"/>
      <point x="559" y="-17" type="curve" smooth="yes"/>
      <point x="559" y="-69"/>
      <point x="615" y="-99"/>
      <point x="680" y="-99" type="curve" smooth="yes"/>
      <point x="735" y="-99"/>
      <point x="775" y="-80"/>
      <point x="804" y="-62" type="curve"/>
      <point x="793" y="-42" type="line"/>
      <point x="767" y="-58"/>
      <point x="729" y="-77"/>
      <point x="680" y="-77" type="curve" smooth="yes"/>
      <point x="629" y="-77"/>
      <point x="584" y="-54"/>
      <point x="584" y="-14" type="curve" smooth="yes"/>
      <point x="584" y="26"/>
      <point x="621" y="52"/>
      <point x="668" y="68" type="curve"/>
    </contour>
    <contour>
      <point x="668" y="234" type="move" name="ogonek"/>
    </contour>
    <contour>
      <point x="371" y="155" type="move" name="bottom"/>
    </contour>
    <contour>
      <point x="377" y="532" type="move" name="top"/>
    </contour>
  </outline>
</glyph>
<glyph name="Ecaron" format="1">
  <advance width="995"/>
  <unicode hex="011A"/>
  <outline>
    <contour>
      <point x="864" y="-1" type="line"/>
      <point x="864" y="183" type="line"/>
      <point x="840" y="183" type="line"/>
      <point x="840" y="22" type="line"/>
      <point x="56" y="22" type="line"/>
      <point x="56" y="-1" type="line"/>
    </contour>
    <contour>
      <point x="264" y="12" type="line"/>
      <point x="264" y="507" type="line"/>
      <point x="239" y="507" type="line"/>
      <point x="239" y="12" type="line"/>
    </contour>
    <contour>
      <point x="585" y="260" type="line"/>
      <point x="585" y="284" type="line"/>
      <point x="261" y="284" type="line"/>
      <point x="261" y="260" type="line"/>
    </contour>
    <contour>
      <point x="598" y="152" type="line"/>
      <point x="598" y="392" type="line"/>
      <point x="573" y="392" type="line"/>
      <point x="573" y="152" type="line"/>
    </contour>
    <contour>
      <point x="864" y="336" type="line"/>
      <point x="864" y="520" type="line"/>
      <point x="56" y="520" type="line"/>
      <point x="56" y="496" type="line"/>
      <point x="839" y="496" type="line"/>
      <point x="839" y="336" type="line"/>
    </contour>
    <contour>
      <point x="531" y="617" type="line"/>
      <point x="365" y="744" type="line"/>
      <point x="354" y="731" type="line"/>
      <point x="521" y="589" type="line"/>
      <point x="541" y="589" type="line"/>
      <point x="709" y="731" type="line"/>
      <point x="698" y="744" type="line"/>
    </contour>
    <contour>
      <point x="864" y="165" type="move" name="ogonek"/>
    </contour>
    <contour>
      <point x="502" y="165" type="move" name="bottom"/>
    </contour>
    <contour>
      <point x="531" y="686" type="move" name="top"/>
    </contour>
  </outline>
</glyph>
<glyph name="lacute" format="1">
  <advance width="450"/>
  <unicode hex="013A"/>
  <outline>
    <contour>
      <point x="237" y="-1" type="line"/>
      <point x="237" y="520" type="line"/>
      <point x="212" y="520" type="line"/>
      <point x="212" y="-1" type="line"/>
    </contour>
    <contour>
      <point x="420" y="-1" type="line"/>
      <point x="420" y="22" type="line"/>
      <point x="30" y="22" type="line"/>
      <point x="30" y="-1" type="line"/>
    </contour>
    <contour>
      <point x="237" y="496" type="line"/>
      <point x="237" y="520" type="line"/>
      <point x="30" y="520" type="line"/>
      <point x="30" y="496" type="line"/>
    </contour>
    <contour>
      <point x="379" y="742" type="line"/>
      <point x="394" y="715" type="line"/>
      <point x="153" y="585" type="line"/>
      <point x="144" y="601" type="line"/>
    </contour>
    <contour>
      <point x="212" y="449" type="move" name="center"/>
    </contour>
    <contour>
      <point x="212" y="686" type="move" name="top"/>
    </contour>
    <contour>
      <point x="281" y="502" type="move" name="topright"/>
    </contour>
    <contour>
      <point x="212" y="165" type="move" name="bottom"/>
    </contour>
  </outline>
</glyph>
<glyph name="Lcaron" format="1">
  <advance width="842"/>
  <unicode hex="013D"/>
  <outline>
    <contour>
      <point x="792" y="-1" type="line"/>
      <point x="792" y="183" type="line"/>
      <point x="767" y="183" type="line"/>
      <point x="767" y="22" type="line"/>
      <point x="56" y="22" type="line"/>
      <point x="56" y="-1" type="line"/>
    </contour>
    <contour>
      <point x="264" y="12" type="line"/>
      <point x="264" y="507" type="line"/>
      <point x="239" y="507" type="line"/>
      <point x="239" y="12" type="line"/>
    </contour>
    <contour>
      <point x="446" y="496" type="line"/>
      <point x="446" y="520" type="line"/>
      <point x="56" y="520" type="line"/>
      <point x="56" y="496" type="line"/>
    </contour>
    <contour>
      <point x="574" y="447"/>
      <point x="547" y="385"/>
      <point x="482" y="309" type="curve"/>
      <point x="494" y="298" type="line"/>
      <point x="570" y="373"/>
      <point x="603" y="446"/>
      <point x="600" y="523" type="curve"/>
      <point x="574" y="525" type="line"/>
    </contour>
    <contour>
      <point x="413" y="410" type="move" name="center"/>
    </contour>
    <contour>
      <point x="237" y="686" type="move" name="top"/>
    </contour>
    <contour>
      <point x="450" y="504" type="move" name="topright"/>
    </contour>
    <contour>
      <point x="451" y="165" type="move" name="bottom"/>
    </contour>
  </outline>
</glyph>
<glyph name="lslash" format="1">
  <advance width="451"/>
  <unicode hex="0142"/>
  <outline>
    <contour>
      <point x="420" y="318" type="line"/>
      <point x="420" y="343" type="line"/>
      <point x="30" y="199" type="line"/>
      <point x="30" y="174" type="line"/>
    </contour>
    <contour>
      <point x="237" y="-1" type="line"/>
      <point x="237" y="520" type="line"/>
      <point x="212" y="520" type="line"/>
      <point x="212" y="-1" type="line"/>
    </contour>
    <contour>
      <point x="420" y="-1" type="line"/>
      <point x="420" y="22" type="line"/>
      <point x="30" y="22" type="line"/>
      <point x="30" y="-1" type="line"/>
    </contour>
    <contour>
      <point x="237" y="496" type="line"/>
      <point x="237" y="520" type="line"/>
      <point x="30" y="520" type="line"/>
      <point x="30" y="496" type="line"/>
    </contour>
    <contour>
      <point x="212" y="449" type="move" name="center"/>
    </contour>
    <contour>
      <point x="212" y="686" type="move" name="top"/>
    </contour>
    <contour>
      <point x="281" y="502" type="move" name="topright"/>
    </contour>
    <contour>
      <point x="212" y="165" type="move" name="bottom"/>
    </contour>
  </outline>
</glyph>
<glyph name="nacute" format="1">
  <advance width="960"/>
  <unicode hex="0144"/>
  <outline>
    <contour>
      <point x="774" y="-1" type="line"/>
      <point x="774" y="134" type="line"/>
      <point x="774" y="256"/>
      <point x="726" y="366"/>
      <point x="568" y="366" type="curve" smooth="yes"/>
      <point x="432" y="366"/>
      <point x="309" y="263"/>
      <point x="245" y="210" type="curve"/>
      <point x="245" y="187" type="line"/>
      <point x="309" y="238"/>
      <point x="432" y="343"/>
      <point x="568" y="343" type="curve" smooth="yes"/>
      <point x="716" y="343"/>
      <point x="749" y="236"/>
      <point x="749" y="134" type="curve"/>
      <point x="749" y="-1" type="line"/>
    </contour>
    <contour>
      <point x="418" y="-1" type="line"/>
      <point x="418" y="22" type="line"/>
      <point x="50" y="22" type="line"/>
      <point x="50" y="-1" type="line"/>
    </contour>
    <contour>
      <point x="258" y="-1" type="line"/>
      <point x="258" y="357" type="line"/>
      <point x="233" y="357" type="line"/>
      <point x="233" y="-1" type="line"/>
    </contour>
    <contour>
      <point x="258" y="333" type="line"/>
      <point x="258" y="357" type="line"/>
      <point x="50" y="357" type="line"/>
      <point x="50" y="333" type="line"/>
    </contour>
    <contour>
      <point x="947" y="-1" type="line"/>
      <point x="947" y="22" type="line"/>
      <point x="588" y="22" type="line"/>
      <point x="588" y="-1" type="line"/>
    </contour>
    <contour>
      <point x="688" y="588" type="line"/>
      <point x="703" y="561" type="line"/>
      <point x="461" y="431" type="line"/>
      <point x="452" y="447" type="line"/>
    </contour>
    <contour>
      <point x="521" y="532" type="move" name="top"/>
    </contour>
    <contour>
      <point x="511" y="165" type="move" name="bottom"/>
    </contour>
  </outline>
</glyph>
<glyph name="Eng" format="1">
  <advance width="1110"/>
  <unicode hex="014A"/>
  <outline>
    <contour>
      <point x="913" y="25" type="line"/>
      <point x="913" y="507" type="line"/>
      <point x="888" y="507" type="line"/>
      <point x="888" y="42" type="line"/>
      <point x="264" y="520" type="line"/>
      <point x="220" y="520" type="line"/>
      <point x="908" y="-7" type="line"/>
    </contour>
    <contour>
      <point x="396" y="-1" type="line"/>
      <point x="396" y="22" type="line"/>
      <point x="56" y="22" type="line"/>
      <point x="56" y="-1" type="line"/>
    </contour>
    <contour>
      <point x="264" y="10" type="line"/>
      <point x="264" y="520" type="line"/>
      <point x="239" y="520" type="line"/>
      <point x="239" y="10" type="line"/>
    </contour>
    <contour>
      <point x="264" y="497" type="line"/>
      <point x="264" y="520" type="line"/>
      <point x="56" y="520" type="line"/>
      <point x="56" y="497" type="line"/>
    </contour>
    <contour>
      <point x="1095" y="497" type="line"/>
      <point x="1095" y="520" type="line"/>
      <point x="705" y="520" type="line"/>
      <point x="705" y="497" type="line"/>
    </contour>
    <contour>
      <point x="822" y="-192"/>
      <point x="913" y="-117"/>
      <point x="913" y="5" type="curve" smooth="yes"/>
      <point x="913" y="326" type="line"/>
      <point x="888" y="326" type="line"/>
      <point x="888" y="5" type="line" smooth="yes"/>
      <point x="888" y="-113"/>
      <point x="796" y="-169"/>
      <point x="691" y="-169" type="curve" smooth="yes"/>
      <point x="588" y="-169"/>
      <point x="518" y="-110"/>
      <point x="477" y="-55" type="curve"/>
      <point x="461" y="-71" type="line"/>
      <point x="500" y="-127"/>
      <point x="572" y="-192"/>
      <point x="691" y="-192" type="curve" smooth="yes"/>
    </contour>
    <contour>
      <point x="553" y="676" type="move" name="top"/>
    </contour>
    <contour>
      <point x="613" y="175" type="move" name="bottom"/>
    </contour>
  </outline>
</glyph>
<glyph name="ohungarumlaut" format="1">
  <advance width="802"/>
  <unicode hex="0151"/>
  <outline>
    <contour>
      <point x="580" y="-11"/>
      <point x="721" y="59"/>
      <point x="721" y="179" type="curve"/>
      <point x="721" y="301"/>
      <point x="580" y="366"/>
      <point x="401" y="366" type="curve"/>
      <point x="222" y="366"/>
      <point x="81" y="301"/>
      <point x="81" y="179" type="curve"/>
      <point x="81" y="59"/>
      <point x="222" y="-11"/>
      <point x="401" y="-11" type="curve" smooth="yes"/>
    </contour>
    <contour>
      <point x="233" y="12"/>
      <point x="106" y="75"/>
      <point x="106" y="179" type="curve"/>
      <point x="106" y="284"/>
      <point x="233" y="342"/>
      <point x="401" y="343" type="curve"/>
      <point x="568" y="343"/>
      <point x="696" y="284"/>
      <point x="696" y="179" type="curve"/>
      <point x="696" y="75"/>
      <point x="568" y="12"/>
      <point x="401" y="12" type="curve" smooth="yes"/>
    </contour>
    <contour>
      <point x="625" y="611" type="line"/>
      <point x="608" y="631" type="line"/>
      <point x="440" y="463" type="line"/>
      <point x="449" y="453" type="line"/>
    </contour>
    <contour>
      <point x="429" y="611" type="line"/>
      <point x="411" y="631" type="line"/>
      <point x="244" y="463" type="line"/>
      <point x="253" y="453" type="line"/>
    </contour>
    <contour>
      <point x="401" y="345" type="move" name="center"/>
    </contour>
    <contour>
      <point x="401" y="155" type="move" name="ogonek"/>
    </contour>
    <contour>
      <point x="401" y="532" type="move" name="top"/>
    </contour>
    <contour>
      <point x="771" y="523" type="move" name="topright"/>
    </contour>
    <contour>
      <point x="401" y="155" type="move" name="bottom"/>
    </contour>
  </outline>
</glyph>
<glyph name="rcommaaccent" format="1">
  <advance width="727"/>
  <unicode hex="0157"/>
  <outline>
    <contour>
      <point x="377" y="285"/>
      <point x="499" y="343"/>
      <point x="627" y="343" type="curve"/>
      <point x="627" y="218" type="line"/>
      <point x="652" y="218" type="line"/>
      <point x="652" y="366" type="line"/>
      <point x="627" y="366" type="line"/>
      <point x="483" y="366"/>
      <point x="367" y="305"/>
      <point x="245" y="210" type="curve"/>
      <point x="245" y="187" type="line"/>
    </contour>
    <contour>
      <point x="441" y="-1" type="line"/>
      <point x="441" y="22" type="line"/>
      <point x="50" y="22" type="line"/>
      <point x="50" y="-1" type="line"/>
    </contour>
    <contour>
      <point x="258" y="-1" type="line"/>
      <point x="258" y="357" type="line"/>
      <point x="233" y="357" type="line"/>
      <point x="233" y="-1" type="line"/>
    </contour>
    <contour>
      <point x="258" y="333" type="line"/>
      <point x="258" y="357" type="line"/>
      <point x="50" y="357" type="line"/>
      <point x="50" y="333" type="line"/>
    </contour>
    <contour>
      <point x="406" y="-105"/>
      <point x="386" y="-86"/>
      <point x="356" y="-86" type="curve" smooth="yes"/>
      <point x="329" y="-86"/>
      <point x="312" y="-101"/>
      <point x="312" y="-118" type="curve" smooth="yes"/>
      <point x="312" y="-135"/>
      <point x="328" y="-146"/>
      <point x="351" y="-146" type="curve" smooth="yes"/>
      <point x="364" y="-146"/>
      <point x="375" y="-143"/>
      <point x="386" y="-142" type="curve"/>
      <point x="379" y="-186"/>
      <point x="347" y="-222"/>
      <point x="296" y="-267" type="curve"/>
      <point x="308" y="-279" type="line"/>
      <point x="369" y="-232"/>
      <point x="406" y="-177"/>
      <point x="406" y="-134" type="curve" smooth="yes"/>
    </contour>
    <contour>
      <point x="356" y="523" type="move" name="top"/>
    </contour>
    <contour>
      <point x="356" y="165" type="move" name="bottom"/>
    </contour>
  </outline>
</glyph>
<glyph name="Sacute" format="1">
  <advance width="869"/>
  <unicode hex="015A"/>
  <outline>
    <contour>
      <point x="676" y="-11"/>
      <point x="779" y="33"/>
      <point x="779" y="123" type="curve" smooth="yes"/>
      <point x="779" y="218"/>
      <point x="682" y="249"/>
      <point x="442" y="268" type="curve" smooth="yes"/>
      <point x="217" y="285"/>
      <point x="142" y="316"/>
      <point x="142" y="385" type="curve" smooth="yes"/>
      <point x="142" y="468"/>
      <point x="234" y="507"/>
      <point x="373" y="507" type="curve" smooth="yes"/>
      <point x="541" y="507"/>
      <point x="652" y="444"/>
      <point x="738" y="344" type="curve"/>
      <point x="744" y="346" type="line"/>
      <point x="744" y="520" type="line"/>
      <point x="720" y="520" type="line"/>
      <point x="720" y="378" type="line"/>
      <point x="736" y="378" type="line"/>
      <point x="668" y="453"/>
      <point x="560" y="531"/>
      <point x="375" y="531" type="curve" smooth="yes"/>
      <point x="212" y="531"/>
      <point x="117" y="480"/>
      <point x="117" y="385" type="curve" smooth="yes"/>
      <point x="117" y="305"/>
      <point x="195" y="260"/>
      <point x="441" y="243" type="curve" smooth="yes"/>
      <point x="667" y="227"/>
      <point x="755" y="200"/>
      <point x="755" y="123" type="curve" smooth="yes"/>
      <point x="755" y="46"/>
      <point x="659" y="12"/>
      <point x="535" y="12" type="curve" smooth="yes"/>
      <point x="385" y="12"/>
      <point x="211" y="72"/>
      <point x="122" y="176" type="curve"/>
      <point x="116" y="174" type="line"/>
      <point x="116" y="-1" type="line"/>
      <point x="139" y="-1" type="line"/>
      <point x="139" y="139" type="line"/>
      <point x="124" y="139" type="line"/>
      <point x="197" y="64"/>
      <point x="361" y="-11"/>
      <point x="534" y="-11" type="curve" smooth="yes"/>
    </contour>
    <contour>
      <point x="619" y="753" type="line"/>
      <point x="634" y="725" type="line"/>
      <point x="392" y="595" type="line"/>
      <point x="383" y="611" type="line"/>
    </contour>
    <contour>
      <point x="451" y="697" type="move" name="top"/>
    </contour>
    <contour>
      <point x="471" y="155" type="move" name="bottom"/>
    </contour>
  </outline>
</glyph>
<glyph name="scedilla" format="1">
  <advance width="746"/>
  <unicode hex="015F"/>
  <outline>
    <contour>
      <point x="553" y="-11"/>
      <point x="641" y="18"/>
      <point x="641" y="85" type="curve" smooth="yes"/>
      <point x="641" y="157"/>
      <point x="555" y="176"/>
      <point x="365" y="188" type="curve" smooth="yes"/>
      <point x="190" y="198"/>
      <point x="126" y="221"/>
      <point x="126" y="268" type="curve" smooth="yes"/>
      <point x="126" y="318"/>
      <point x="198" y="344"/>
      <point x="315" y="344" type="curve" smooth="yes"/>
      <point x="441" y="344"/>
      <point x="551" y="306"/>
      <point x="624" y="219" type="curve"/>
      <point x="624" y="219" type="line"/>
      <point x="624" y="357" type="line"/>
      <point x="600" y="357" type="line"/>
      <point x="600" y="256" type="line"/>
      <point x="617" y="249" type="line"/>
      <point x="568" y="313"/>
      <point x="458" y="366"/>
      <point x="320" y="366" type="curve" smooth="yes"/>
      <point x="169" y="366"/>
      <point x="102" y="326"/>
      <point x="102" y="266" type="curve" smooth="yes"/>
      <point x="102" y="204"/>
      <point x="181" y="173"/>
      <point x="365" y="163" type="curve" smooth="yes"/>
      <point x="548" y="152"/>
      <point x="616" y="135"/>
      <point x="616" y="84" type="curve" smooth="yes"/>
      <point x="616" y="25"/>
      <point x="520" y="11"/>
      <point x="415" y="11" type="curve" smooth="yes"/>
      <point x="293" y="11"/>
      <point x="165" y="49"/>
      <point x="95" y="135" type="curve"/>
      <point x="95" y="135" type="line"/>
      <point x="95" y="-1" type="line"/>
      <point x="119" y="-1" type="line"/>
      <point x="119" y="98" type="line"/>
      <point x="101" y="105" type="line"/>
      <point x="149" y="42"/>
      <point x="271" y="-11"/>
      <point x="410" y="-11" type="curve" smooth="yes"/>
    </contour>
    <contour>
      <point x="496" y="-187"/>
      <point x="535" y="-165"/>
      <point x="535" y="-127" type="curve" smooth="yes"/>
      <point x="535" y="-90"/>
      <point x="498" y="-68"/>
      <point x="442" y="-68" type="curve" smooth="yes"/>
      <point x="420" y="-68"/>
      <point x="405" y="-70"/>
      <point x="389" y="-71" type="curve"/>
      <point x="415" y="4" type="line"/>
      <point x="394" y="4" type="line"/>
      <point x="362" y="-87" type="line"/>
      <point x="367" y="-93" type="line"/>
      <point x="388" y="-91"/>
      <point x="410" y="-89"/>
      <point x="442" y="-89" type="curve" smooth="yes"/>
      <point x="488" y="-89"/>
      <point x="511" y="-102"/>
      <point x="511" y="-127" type="curve" smooth="yes"/>
      <point x="511" y="-153"/>
      <point x="480" y="-165"/>
      <point x="425" y="-165" type="curve" smooth="yes"/>
      <point x="364" y="-165"/>
      <point x="320" y="-148"/>
      <point x="295" y="-136" type="curve"/>
      <point x="286" y="-156" type="line"/>
      <point x="314" y="-169"/>
      <point x="359" y="-187"/>
      <point x="425" y="-187" type="curve" smooth="yes"/>
    </contour>
    <contour>
      <point x="371" y="532" type="move" name="top"/>
    </contour>
    <contour>
      <point x="411" y="155" type="move" name="bottom"/>
    </contour>
  </outline>
</glyph>
<glyph name="Uhungarumlaut" format="1">
  <advance width="1004"/>
  <unicode hex="0170"/>
  <outline>
    <contour>
      <point x="696" y="-11"/>
      <point x="822" y="78"/>
      <point x="822" y="254" type="curve" smooth="yes"/>
      <point x="822" y="507" type="line"/>
      <point x="800" y="507" type="line"/>
      <point x="796" y="241" type="line" smooth="yes"/>
      <point x="794" y="88"/>
      <point x="677" y="12"/>
      <point x="502" y="12" type="curve"/>
      <point x="327" y="12"/>
      <point x="210" y="88"/>
      <point x="207" y="243" type="curve" smooth="yes"/>
      <point x="205" y="507" type="line"/>
      <point x="182" y="507" type="line"/>
      <point x="182" y="254" type="line" smooth="yes"/>
      <point x="182" y="78"/>
      <point x="309" y="-11"/>
      <point x="502" y="-11" type="curve"/>
    </contour>
    <contour>
      <point x="387" y="496" type="line"/>
      <point x="387" y="520" type="line"/>
      <point x="0" y="520" type="line"/>
      <point x="0" y="496" type="line"/>
    </contour>
    <contour>
      <point x="1004" y="496" type="line"/>
      <point x="1004" y="520" type="line"/>
      <point x="617" y="520" type="line"/>
      <point x="617" y="496" type="line"/>
    </contour>
    <contour>
      <point x="726" y="755" type="line"/>
      <point x="709" y="775" type="line"/>
      <point x="541" y="607" type="line"/>
      <point x="550" y="597" type="line"/>
    </contour>
    <contour>
      <point x="530" y="755" type="line"/>
      <point x="512" y="775" type="line"/>
      <point x="345" y="607" type="line"/>
      <point x="354" y="597" type="line"/>
    </contour>
    <contour>
      <point x="502" y="155" type="move" name="ogonek"/>
    </contour>
    <contour>
      <point x="502" y="676" type="move" name="top"/>
    </contour>
    <contour>
      <point x="995" y="656" type="move" name="topright"/>
    </contour>
    <contour>
      <point x="502" y="155" type="move" name="bottom"/>
    </contour>
  </outline>
</glyph>
<glyph name="Tcommaaccent" format="1">
  <advance width="955"/>
  <unicode hex="021A"/>
  <unicode hex="0162"/>
  <outline>
    <contour>
      <point x="116" y="336" type="line"/>
      <point x="116" y="497" type="line"/>
      <point x="839" y="497" type="line"/>
      <point x="839" y="336" type="line"/>
      <point x="864" y="336" type="line"/>
      <point x="864" y="520" type="line"/>
      <point x="90" y="520" type="line"/>
      <point x="90" y="336" type="line"/>
    </contour>
    <contour>
      <point x="682" y="-1" type="line"/>
      <point x="682" y="22" type="line"/>
      <point x="272" y="22" type="line"/>
      <point x="272" y="-1" type="line"/>
    </contour>
    <contour>
      <point x="490" y="12" type="line"/>
      <point x="490" y="507" type="line"/>
      <point x="465" y="507" type="line"/>
      <point x="465" y="12" type="line"/>
    </contour>
    <contour>
      <point x="527" y="-105"/>
      <point x="507" y="-86"/>
      <point x="477" y="-86" type="curve" smooth="yes"/>
      <point x="450" y="-86"/>
      <point x="432" y="-101"/>
      <point x="432" y="-118" type="curve" smooth="yes"/>
      <point x="432" y="-135"/>
      <point x="449" y="-146"/>
      <point x="472" y="-146" type="curve" smooth="yes"/>
      <point x="485" y="-146"/>
      <point x="496" y="-143"/>
      <point x="507" y="-142" type="curve"/>
      <point x="500" y="-186"/>
      <point x="467" y="-222"/>
      <point x="417" y="-267" type="curve"/>
      <point x="429" y="-279" type="line"/>
      <point x="490" y="-232"/>
      <point x="527" y="-177"/>
      <point x="527" y="-134" type="curve" smooth="yes"/>
    </contour>
    <contour>
      <point x="477" y="410" type="move" name="center"/>
    </contour>
    <contour>
      <point x="477" y="165" type="move" name="bottom"/>
    </contour>
    <contour>
      <point x="477" y="686" type="move" name="top"/>
    </contour>
  </outline>
</glyph>
<glyph name="danda" format="1">
  <advance width="411"/>
  <unicode hex="0964"/>
  <outline>
    <contour>
      <point x="280" y="578" type="line"/>
      <point x="280" y="-121" type="line"/>
      <point x="305" y="-121" type="line"/>
      <point x="305" y="578" type="line"/>
    </contour>
  </outline>
</glyph>
<glyph name="grDA" format="1">
  <advance width="844"/>
  <unicode hex="0A26"/>
  <outline>
    <contour>
      <point x="110" y="302" type="line" smooth="yes"/>
      <point x="211" y="86"/>
      <point x="340" y="2"/>
      <point x="559" y="2" type="curve" smooth="yes"/>
      <point x="616" y="2"/>
      <point x="682" y="12"/>
      <point x="733" y="24" type="curve"/>
      <point x="729" y="46" type="line"/>
      <point x="678" y="34"/>
      <point x="611" y="25"/>
      <point x="558" y="25" type="curve" smooth="yes"/>
      <point x="357" y="25"/>
      <point x="229" y="102"/>
      <point x="136" y="301" type="curve" smooth="yes"/>
      <point x="94" y="391" type="line"/>
      <point x="73" y="381" type="line"/>
    </contour>
    <contour>
      <point x="854" y="467" type="line"/>
      <point x="854" y="490" type="line"/>
      <point x="-10" y="490" type="line"/>
      <point x="-10" y="467" type="line"/>
    </contour>
    <contour>
      <point x="632" y="264" type="line"/>
      <point x="657" y="264" type="line"/>
      <point x="657" y="488" type="line"/>
      <point x="632" y="488" type="line"/>
    </contour>
    <contour>
      <point x="657" y="257" type="line"/>
      <point x="657" y="280" type="line"/>
      <point x="139" y="280" type="line"/>
      <point x="141" y="257" type="line"/>
    </contour>
  </outline>
</glyph>
<glyph name="grMA" format="1">
  <advance width="903"/>
  <unicode hex="0A2E"/>
  <outline>
    <contour>
      <point x="214" y="490" type="line"/>
      <point x="189" y="490" type="line"/>
      <point x="256" y="215" type="line"/>
      <point x="166" y="68" type="line"/>
      <point x="187" y="55" type="line"/>
      <point x="283" y="209" type="line"/>
    </contour>
    <contour>
      <point x="266" y="225" type="line"/>
      <point x="266" y="202" type="line"/>
      <point x="712" y="202" type="line"/>
      <point x="712" y="225" type="line"/>
    </contour>
    <contour>
      <point x="715" y="488" type="line"/>
      <point x="690" y="488" type="line"/>
      <point x="690" y="0" type="line"/>
      <point x="715" y="0" type="line"/>
    </contour>
    <contour>
      <point x="690" y="490" type="line"/>
      <point x="690" y="467" type="line"/>
      <point x="913" y="467" type="line"/>
      <point x="913" y="490" type="line"/>
    </contour>
    <contour>
      <point x="207" y="467" type="line"/>
      <point x="207" y="490" type="line"/>
      <point x="-10" y="490" type="line"/>
      <point x="-10" y="467" type="line"/>
    </contour>
  </outline>
</glyph>
<glyph name="grRA" format="1">
  <advance width="863"/>
  <unicode hex="0A30"/>
  <outline>
    <contour>
      <point x="873" y="467" type="line"/>
      <point x="873" y="490" type="line"/>
      <point x="-10" y="490" type="line"/>
      <point x="-10" y="467" type="line"/>
    </contour>
    <contour>
      <point x="671.0" y="309.0" type="line"/>
      <point x="232.0" y="309.0" type="line" smooth="yes"/>
      <point x="160.0" y="309.0"/>
      <point x="130" y="297"/>
      <point x="110" y="277" type="curve" smooth="yes"/>
      <point x="99" y="266"/>
      <point x="91.0" y="249.0"/>
      <point x="91.0" y="229.0" type="curve" smooth="yes"/>
      <point x="91.0" y="120.0"/>
      <point x="320" y="-1"/>
      <point x="525" y="-1" type="curve" smooth="yes"/>
      <point x="636" y="-1"/>
      <point x="675" y="45"/>
      <point x="675" y="133" type="curve" smooth="yes"/>
      <point x="675.0" y="487.0" type="line"/>
      <point x="650.0" y="487.0" type="line"/>
      <point x="650" y="136" type="line" smooth="yes"/>
      <point x="650" y="60"/>
      <point x="624" y="22"/>
      <point x="525" y="22" type="curve" smooth="yes"/>
      <point x="340" y="22"/>
      <point x="116.0" y="135.0"/>
      <point x="116.0" y="228.0" type="curve" smooth="yes"/>
      <point x="116.0" y="241.0"/>
      <point x="121" y="253"/>
      <point x="129" y="261" type="curve" smooth="yes"/>
      <point x="144" y="276"/>
      <point x="169.0" y="286.0"/>
      <point x="236.0" y="286.0" type="curve" smooth="yes"/>
      <point x="671.0" y="286.0" type="line"/>
    </contour>
  </outline>
</glyph>
<glyph name="grmII" format="1">
  <advance width="401"/>
  <unicode hex="0A40"/>
  <outline>
    <contour>
      <point x="411" y="467" type="line"/>
      <point x="411" y="490" type="line"/>
      <point x="-10" y="490" type="line"/>
      <point x="-10" y="467" type="line"/>
    </contour>
    <contour>
      <point x="213" y="0" type="line"/>
      <point x="213" y="569" type="line" smooth="yes"/>
      <point x="213" y="685"/>
      <point x="146" y="741"/>
      <point x="23" y="741" type="curve" smooth="yes"/>
      <point x="-47" y="741"/>
      <point x="-132" y="711"/>
      <point x="-217" y="660" type="curve"/>
      <point x="-206" y="640" type="line"/>
      <point x="-119" y="692"/>
      <point x="-39" y="716"/>
      <point x="23" y="716" type="curve" smooth="yes"/>
      <point x="128" y="716"/>
      <point x="188" y="673"/>
      <point x="188" y="564" type="curve" smooth="yes"/>
      <point x="188" y="0" type="line"/>
    </contour>
  </outline>
</glyph>
<glyph name="grVirama" format="1">
  <advance width="0"/>
  <unicode hex="0A4D"/>
  <outline>
    <contour>
      <point x="-396" y="-127" type="line"/>
      <point x="-258" y="-131"/>
      <point x="-199" y="-157"/>
      <point x="-69" y="-243" type="curve"/>
      <point x="-56" y="-224" type="line"/>
      <point x="-188" y="-136"/>
      <point x="-250" y="-108"/>
      <point x="-393" y="-105" type="curve"/>
    </contour>
  </outline>
</glyph>
<glyph name="grOne" format="1">
  <advance width="688"/>
  <unicode hex="0A67"/>
  <outline>
    <contour>
      <point x="514" y="163" type="line" smooth="yes"/>
      <point x="514" y="88"/>
      <point x="528" y="43"/>
      <point x="605" y="-11" type="curve"/>
      <point x="620" y="6" type="line"/>
      <point x="545" y="62"/>
      <point x="539" y="91"/>
      <point x="539" y="163" type="curve" smooth="yes"/>
      <point x="539" y="329" type="line" smooth="yes"/>
      <point x="539" y="423"/>
      <point x="456" y="490"/>
      <point x="304" y="490" type="curve" smooth="yes"/>
      <point x="180" y="490"/>
      <point x="98" y="431"/>
      <point x="98" y="352" type="curve" smooth="yes"/>
      <point x="98" y="269"/>
      <point x="184" y="215"/>
      <point x="310" y="215" type="curve" smooth="yes"/>
      <point x="403" y="215"/>
      <point x="467" y="240"/>
      <point x="529" y="275" type="curve"/>
      <point x="519" y="297" type="line"/>
      <point x="460" y="261"/>
      <point x="394" y="238"/>
      <point x="308" y="238" type="curve" smooth="yes"/>
      <point x="201" y="238"/>
      <point x="122" y="282"/>
      <point x="122" y="351" type="curve" smooth="yes"/>
      <point x="122" y="417"/>
      <point x="194" y="467"/>
      <point x="305" y="467" type="curve" smooth="yes"/>
      <point x="442" y="467"/>
      <point x="514" y="410"/>
      <point x="514" y="326" type="curve" smooth="yes"/>
    </contour>
  </outline>
</glyph>
<glyph name="grSeven" format="1">
  <advance width="756"/>
  <unicode hex="0A6D"/>
  <outline>
    <contour>
      <point x="101" y="0" type="line"/>
      <point x="450" y="16"/>
      <point x="663" y="153"/>
      <point x="663" y="304" type="curve" smooth="yes"/>
      <point x="663" y="409"/>
      <point x="566" y="490"/>
      <point x="403" y="490" type="curve" smooth="yes"/>
      <point x="247" y="490"/>
      <point x="163" y="416"/>
      <point x="163" y="329" type="curve" smooth="yes"/>
      <point x="163" y="303"/>
      <point x="174" y="273"/>
      <point x="193" y="249" type="curve"/>
      <point x="211" y="259" type="line"/>
      <point x="193" y="286"/>
      <point x="187" y="304"/>
      <point x="187" y="328" type="curve" smooth="yes"/>
      <point x="187" y="405"/>
      <point x="265" y="467"/>
      <point x="405" y="467" type="curve" smooth="yes"/>
      <point x="544" y="467"/>
      <point x="638" y="397"/>
      <point x="638" y="304" type="curve" smooth="yes"/>
      <point x="638" y="168"/>
      <point x="435" y="39"/>
      <point x="97" y="23" type="curve"/>
    </contour>
  </outline>
</glyph>
<glyph name="Wacute" format="1">
  <advance width="1215"/>
  <unicode hex="1E82"/>
  <outline>
    <contour>
      <point x="372" y="-11" type="line"/>
      <point x="381" y="20" type="line"/>
      <point x="181" y="507" type="line"/>
      <point x="151" y="507" type="line"/>
      <point x="366" y="-11" type="line"/>
    </contour>
    <contour>
      <point x="375" y="-11" type="line"/>
      <point x="620" y="480" type="line"/>
      <point x="609" y="507" type="line"/>
      <point x="605" y="507" type="line"/>
      <point x="363" y="18" type="line"/>
      <point x="370" y="-11" type="line"/>
    </contour>
    <contour>
      <point x="844" y="-11" type="line"/>
      <point x="852" y="20" type="line"/>
      <point x="613" y="507" type="line"/>
      <point x="607" y="507" type="line"/>
      <point x="597" y="480" type="line"/>
      <point x="839" y="-11" type="line"/>
    </contour>
    <contour>
      <point x="847" y="-11" type="line"/>
      <point x="1063" y="507" type="line"/>
      <point x="1034" y="507" type="line"/>
      <point x="836" y="20" type="line"/>
      <point x="843" y="-11" type="line"/>
    </contour>
    <contour>
      <point x="883" y="520" type="line"/>
      <point x="883" y="496" type="line"/>
      <point x="1221" y="496" type="line"/>
      <point x="1221" y="520" type="line"/>
    </contour>
    <contour>
      <point x="-5" y="496" type="line"/>
      <point x="333" y="496" type="line"/>
      <point x="333" y="520" type="line"/>
      <point x="-5" y="520" type="line"/>
    </contour>
    <contour>
      <point x="800" y="742" type="line"/>
      <point x="815" y="715" type="line"/>
      <point x="573" y="585" type="line"/>
      <point x="564" y="601" type="line"/>
    </contour>
    <contour>
      <point x="632" y="686" type="move" name="top"/>
    </contour>
    <contour>
      <point x="625" y="165" type="move" name="bottom"/>
    </contour>
  </outline>
</glyph>
<glyph name="wdieresis" format="1">
  <advance width="979"/>
  <unicode hex="1E85"/>
  <outline>
    <contour>
      <point x="135" y="333" type="line"/>
      <point x="144" y="333" type="line"/>
      <point x="279" y="333" type="line"/>
      <point x="279" y="357" type="line"/>
      <point x="5" y="357" type="line"/>
      <point x="5" y="333" type="line"/>
    </contour>
    <contour>
      <point x="302" y="-11" type="line"/>
      <point x="312" y="8" type="line"/>
      <point x="150" y="348" type="line"/>
      <point x="122" y="348" type="line"/>
      <point x="296" y="-11" type="line"/>
    </contour>
    <contour>
      <point x="302" y="-11" type="line"/>
      <point x="495" y="325" type="line"/>
      <point x="487" y="348" type="line"/>
      <point x="485" y="348" type="line"/>
      <point x="291" y="8" type="line"/>
      <point x="296" y="-11" type="line"/>
    </contour>
    <contour>
      <point x="678" y="-11" type="line"/>
      <point x="686" y="8" type="line"/>
      <point x="491" y="348" type="line"/>
      <point x="485" y="348" type="line"/>
      <point x="478" y="325" type="line"/>
      <point x="672" y="-11" type="line"/>
    </contour>
    <contour>
      <point x="678" y="-11" type="line"/>
      <point x="852" y="348" type="line"/>
      <point x="827" y="348" type="line"/>
      <point x="667" y="8" type="line"/>
      <point x="673" y="-11" type="line"/>
    </contour>
    <contour>
      <point x="828" y="333" type="line"/>
      <point x="837" y="333" type="line"/>
      <point x="974" y="333" type="line"/>
      <point x="974" y="357" type="line"/>
      <point x="699" y="357" type="line"/>
      <point x="699" y="333" type="line"/>
    </contour>
    <contour>
      <point x="624" y="471"/>
      <point x="639" y="484"/>
      <point x="639" y="501" type="curve"/>
      <point x="639" y="518"/>
      <point x="624" y="529"/>
      <point x="594" y="529" type="curve"/>
      <point x="567" y="529"/>
      <point x="549" y="518"/>
      <point x="549" y="501" type="curve"/>
      <point x="549" y="484"/>
      <point x="567" y="471"/>
      <point x="594" y="471" type="curve"/>
    </contour>
    <contour>
      <point x="401" y="471"/>
      <point x="417" y="484"/>
      <point x="417" y="501" type="curve"/>
      <point x="417" y="518"/>
      <point x="401" y="529"/>
      <point x="372" y="529" type="curve"/>
      <point x="344" y="529"/>
      <point x="328" y="518"/>
      <point x="328" y="501" type="curve"/>
      <point x="328" y="484"/>
      <point x="344" y="471"/>
      <point x="372" y="471" type="curve"/>
    </contour>
    <contour>
      <point x="487" y="523" type="move" name="top"/>
    </contour>
    <contour>
      <point x="487" y="165" type="move" name="bottom"/>
    </contour>
  </outline>
</glyph>
<glyph name="quoteright" format="1">
  <advance width="338"/>
  <unicode hex="2019"/>
  <outline>
    <contour>
      <point x="197" y="416"/>
      <point x="244" y="478"/>
      <point x="244" y="522" type="curve" smooth="yes"/>
      <point x="244" y="553"/>
      <point x="225" y="574"/>
      <point x="190" y="574" type="curve" smooth="yes"/>
      <point x="159" y="574"/>
      <point x="140" y="559"/>
      <point x="140" y="540" type="curve" smooth="yes"/>
      <point x="140" y="520"/>
      <point x="157" y="509"/>
      <point x="182" y="509" type="curve" smooth="yes"/>
      <point x="197" y="509"/>
      <point x="210" y="511"/>
      <point x="223" y="514" type="curve"/>
      <point x="216" y="469"/>
      <point x="175" y="425"/>
      <point x="124" y="380" type="curve"/>
      <point x="135" y="368" type="line"/>
    </contour>
  </outline>
</glyph>
<glyph name="fraction" format="1">
  <advance width="206"/>
  <unicode hex="2044"/>
  <outline>
    <contour>
      <point x="-95" y="-56" type="line"/>
      <point x="-70" y="-71" type="line"/>
      <point x="111" y="239" type="line"/>
      <point x="301" y="544" type="line"/>
      <point x="276" y="559" type="line"/>
      <point x="94" y="249" type="line"/>
    </contour>
  </outline>
</glyph>
<glyph name="trademark" format="1">
  <advance width="947"/>
  <unicode hex="2122"/>
  <outline>
    <contour>
      <point x="642" y="296" type="line"/>
      <point x="646" y="328" type="line"/>
      <point x="502" y="520" type="line"/>
      <point x="473" y="520" type="line"/>
      <point x="641" y="296" type="line"/>
    </contour>
    <contour>
      <point x="294" y="300" type="line"/>
      <point x="294" y="323" type="line"/>
      <point x="120" y="323" type="line"/>
      <point x="120" y="300" type="line"/>
    </contour>
    <contour>
      <point x="220" y="305" type="line"/>
      <point x="220" y="502" type="line"/>
      <point x="195" y="502" type="line"/>
      <point x="195" y="305" type="line"/>
    </contour>
    <contour>
      <point x="75" y="443" type="line"/>
      <point x="75" y="497" type="line"/>
      <point x="340" y="497" type="line"/>
      <point x="340" y="443" type="line"/>
      <point x="366" y="443" type="line"/>
      <point x="366" y="520" type="line"/>
      <point x="50" y="520" type="line"/>
      <point x="50" y="443" type="line"/>
    </contour>
    <contour>
      <point x="549" y="300" type="line"/>
      <point x="549" y="323" type="line"/>
      <point x="406" y="323" type="line"/>
      <point x="406" y="300" type="line"/>
    </contour>
    <contour>
      <point x="498" y="305" type="line"/>
      <point x="498" y="520" type="line"/>
      <point x="473" y="520" type="line"/>
      <point x="473" y="305" type="line"/>
    </contour>
    <contour>
      <point x="496" y="497" type="line"/>
      <point x="496" y="520" type="line"/>
      <point x="406" y="520" type="line"/>
      <point x="406" y="497" type="line"/>
    </contour>
    <contour>
      <point x="877" y="300" type="line"/>
      <point x="877" y="323" type="line"/>
      <point x="734" y="323" type="line"/>
      <point x="734" y="300" type="line"/>
    </contour>
    <contour>
      <point x="642" y="296" type="line"/>
      <point x="811" y="520" type="line"/>
      <point x="782" y="520" type="line"/>
      <point x="638" y="326" type="line"/>
      <point x="641" y="296" type="line"/>
    </contour>
    <contour>
      <point x="809" y="305" type="line"/>
      <point x="809" y="520" type="line"/>
      <point x="784" y="520" type="line"/>
      <point x="784" y="305" type="line"/>
    </contour>
    <contour>
      <point x="877" y="497" type="line"/>
      <point x="877" y="520" type="line"/>
      <point x="787" y="520" type="line"/>
      <point x="787" y="497" type="line"/>
    </contour>
  </outline>
</glyph>
<glyph name="radical" format="1">
  <advance width="643"/>
  <unicode hex="221A"/>
  <outline>
    <contour>
      <point x="180" y="358" type="line"/>
      <point x="156" y="348" type="line"/>
      <point x="340" y="-2" type="line"/>
      <point x="342" y="-2" type="line"/>
      <point x="350" y="34" type="line"/>
    </contour>
    <contour>
      <point x="568" y="639" type="line"/>
      <point x="332" y="34" type="line"/>
      <point x="340" y="-2" type="line"/>
      <point x="342" y="-2" type="line"/>
      <point x="593" y="631" type="line"/>
    </contour>
    <contour>
      <point x="187" y="338" type="line"/>
      <point x="180" y="358" type="line"/>
      <point x="30" y="301" type="line"/>
      <point x="39" y="279" type="line"/>
    </contour>
  </outline>
</glyph>
<glyph name="Acircumflexhookabove.alt" format="1">
  <advance width="1031"/>
  <outline>
    <contour>
      <point x="513" y="531" type="line"/>
      <point x="156" y="12" type="line"/>
      <point x="185" y="12" type="line"/>
      <point x="523" y="502" type="line"/>
      <point x="511" y="502" type="line"/>
      <point x="847" y="12" type="line"/>
      <point x="877" y="12" type="line"/>
      <point x="520" y="531" type="line"/>
    </contour>
    <contour>
      <point x="1031" y="-1" type="line"/>
      <point x="1031" y="22" type="line"/>
      <point x="693" y="22" type="line"/>
      <point x="693" y="-1" type="line"/>
    </contour>
    <contour>
      <point x="337" y="-1" type="line"/>
      <point x="337" y="22" type="line"/>
      <point x="0" y="22" type="line"/>
      <point x="0" y="-1" type="line"/>
    </contour>
    <contour>
      <point x="724" y="205" type="line"/>
      <point x="310" y="205" type="line"/>
      <point x="291" y="183" type="line"/>
      <point x="738" y="183" type="line"/>
    </contour>
    <contour>
      <point x="513" y="700" type="line"/>
      <point x="680" y="572" type="line"/>
      <point x="691" y="585" type="line"/>
      <point x="523" y="727" type="line"/>
      <point x="503" y="727" type="line"/>
      <point x="336" y="585" type="line"/>
      <point x="347" y="572" type="line"/>
    </contour>
    <contour>
      <point x="680" y="672" type="line"/>
      <point x="713" y="704"/>
      <point x="736" y="732"/>
      <point x="736" y="769" type="curve" smooth="yes"/>
      <point x="736" y="814"/>
      <point x="695" y="844"/>
      <point x="635" y="844" type="curve" smooth="yes"/>
      <point x="585" y="844"/>
      <point x="546" y="824"/>
      <point x="518" y="804" type="curve"/>
      <point x="530" y="787" type="line"/>
      <point x="558" y="803"/>
      <point x="592" y="821"/>
      <point x="635" y="821" type="curve" smooth="yes"/>
      <point x="682" y="821"/>
      <point x="711" y="798"/>
      <point x="711" y="766" type="curve" smooth="yes"/>
      <point x="711" y="732"/>
      <point x="687" y="708"/>
      <point x="670" y="681" type="curve"/>
    </contour>
    <contour>
      <point x="605" y="751" type="move" name="hook"/>
    </contour>
    <contour>
      <point x="1033" y="165" type="move" name="ogonek"/>
    </contour>
    <contour>
      <point x="513" y="686" type="move" name="top"/>
    </contour>
    <contour>
      <point x="515" y="165" type="move" name="bottom"/>
    </contour>
  </outline>
</glyph>
<glyph name="atilde.alt2" format="1">
  <advance width="865"/>
  <outline>
    <contour>
      <point x="450" y="-12"/>
      <point x="572" y="52"/>
      <point x="688" y="135" type="curve"/>
      <point x="688" y="161" type="line"/>
      <point x="562" y="72"/>
      <point x="433" y="12"/>
      <point x="319" y="12" type="curve"/>
      <point x="185" y="12"/>
      <point x="106" y="72"/>
      <point x="106" y="160" type="curve"/>
      <point x="106" y="271"/>
      <point x="232" y="343"/>
      <point x="385" y="342" type="curve"/>
      <point x="503" y="343"/>
      <point x="617" y="300"/>
      <point x="692" y="259" type="curve"/>
      <point x="692" y="283" type="line"/>
      <point x="619" y="324"/>
      <point x="513" y="366"/>
      <point x="385" y="366" type="curve"/>
      <point x="220" y="366"/>
      <point x="81" y="289"/>
      <point x="81" y="160" type="curve"/>
      <point x="81" y="52"/>
      <point x="176" y="-12"/>
      <point x="319" y="-12" type="curve"/>
    </contour>
    <contour>
      <point x="794" y="-11"/>
      <point x="822" y="0"/>
      <point x="846" y="18" type="curve"/>
      <point x="836" y="38" type="line"/>
      <point x="812" y="21"/>
      <point x="792" y="12"/>
      <point x="764" y="12" type="curve" smooth="yes"/>
      <point x="732" y="12"/>
      <point x="701" y="37"/>
      <point x="701" y="93" type="curve" smooth="yes"/>
      <point x="701" y="357" type="line"/>
      <point x="683" y="357" type="line"/>
      <point x="676" y="291" type="line"/>
      <point x="676" y="93" type="line" smooth="yes"/>
      <point x="676" y="27"/>
      <point x="712" y="-11"/>
      <point x="763" y="-11" type="curve" smooth="yes"/>
    </contour>
    <contour>
      <point x="580" y="473"/>
      <point x="617" y="518"/>
      <point x="629" y="586" type="curve"/>
      <point x="607" y="589" type="line"/>
      <point x="596" y="522"/>
      <point x="561" y="496"/>
      <point x="524" y="496" type="curve" smooth="yes"/>
      <point x="489" y="496"/>
      <point x="458" y="516"/>
      <point x="426" y="539" type="curve" smooth="yes"/>
      <point x="391" y="563"/>
      <point x="358" y="589"/>
      <point x="312" y="589" type="curve" smooth="yes"/>
      <point x="252" y="589"/>
      <point x="215" y="544"/>
      <point x="204" y="475" type="curve"/>
      <point x="225" y="471" type="line"/>
      <point x="236" y="539"/>
      <point x="271" y="567"/>
      <point x="310" y="567" type="curve" smooth="yes"/>
      <point x="345" y="567"/>
      <point x="375" y="547"/>
      <point x="407" y="523" type="curve" smooth="yes"/>
      <point x="442" y="499"/>
      <point x="477" y="473"/>
      <point x="521" y="473" type="curve" smooth="yes"/>
    </contour>
    <contour>
      <point x="796" y="163" type="move" name="ogonek"/>
    </contour>
    <contour>
      <point x="426" y="155" type="move" name="bottom"/>
    </contour>
    <contour>
      <point x="426" y="532" type="move" name="top"/>
    </contour>
  </outline>
</glyph>
<glyph name="commaaccentcomb" format="1">
  <advance width="262"/>
  <outline>
    <contour>
      <point x="176" y="-105"/>
      <point x="157" y="-86"/>
      <point x="127" y="-86" type="curve" smooth="yes"/>
      <point x="100" y="-86"/>
      <point x="82" y="-101"/>
      <point x="82" y="-118" type="curve" smooth="yes"/>
      <point x="82" y="-135"/>
      <point x="99" y="-146"/>
      <point x="122" y="-146" type="curve" smooth="yes"/>
      <point x="135" y="-146"/>
      <point x="145" y="-143"/>
      <point x="157" y="-142" type="curve"/>
      <point x="150" y="-186"/>
      <point x="117" y="-222"/>
      <point x="67" y="-267" type="curve"/>
      <point x="78" y="-279" type="line"/>
      <point x="140" y="-232"/>
      <point x="176" y="-177"/>
      <point x="176" y="-134" type="curve" smooth="yes"/>
    </contour>
    <contour>
      <point x="127" y="165" type="move" name="_bottom"/>
    </contour>
  </outline>
</glyph>
<glyph name="commaturnedabovecomb" format="1">
  <advance width="250"/>
  <outline>
    <contour>
      <point x="70" y="636"/>
      <point x="90" y="617"/>
      <point x="119" y="617" type="curve" smooth="yes"/>
      <point x="147" y="617"/>
      <point x="165" y="632"/>
      <point x="165" y="649" type="curve" smooth="yes"/>
      <point x="165" y="666"/>
      <point x="149" y="677"/>
      <point x="125" y="677" type="curve" smooth="yes"/>
      <point x="112" y="677"/>
      <point x="101" y="675"/>
      <point x="90" y="673" type="curve"/>
      <point x="97" y="717"/>
      <point x="130" y="753"/>
      <point x="180" y="798" type="curve"/>
      <point x="169" y="810" type="line"/>
      <point x="107" y="762"/>
      <point x="70" y="708"/>
      <point x="70" y="665" type="curve" smooth="yes"/>
    </contour>
    <contour>
      <point x="120" y="686" type="move" name="_top"/>
    </contour>
  </outline>
</glyph>
<glyph name="disgusted" format="1">
  <advance width="958"/>
  <outline>
    <contour>
      <point x="724" y="-167"/>
      <point x="897" y="-21"/>
      <point x="897" y="176" type="curve"/>
      <point x="897" y="374"/>
      <point x="724" y="519"/>
      <point x="478" y="519" type="curve"/>
      <point x="234" y="519"/>
      <point x="60" y="374"/>
      <point x="60" y="176" type="curve"/>
      <point x="60" y="-21"/>
      <point x="234" y="-167"/>
      <point x="478" y="-167" type="curve"/>
    </contour>
    <contour>
      <point x="300" y="131"/>
      <point x="312" y="144"/>
      <point x="312" y="163" type="curve" smooth="yes"/>
      <point x="312" y="180"/>
      <point x="300" y="192"/>
      <point x="283" y="192" type="curve" smooth="yes"/>
      <point x="265" y="192"/>
      <point x="252" y="180"/>
      <point x="252" y="163" type="curve" smooth="yes"/>
      <point x="252" y="144"/>
      <point x="265" y="131"/>
      <point x="283" y="131" type="curve" smooth="yes"/>
    </contour>
    <contour>
      <point x="242" y="283"/>
      <point x="299" y="266"/>
      <point x="356" y="256" type="curve"/>
      <point x="357" y="285" type="line"/>
      <point x="292" y="293"/>
      <point x="236" y="304"/>
      <point x="189" y="275" type="curve"/>
      <point x="195" y="260" type="line"/>
    </contour>
    <contour>
      <point x="245" y="-143"/>
      <point x="85" y="-3"/>
      <point x="85" y="176" type="curve"/>
      <point x="85" y="356"/>
      <point x="245" y="496"/>
      <point x="478" y="496" type="curve"/>
      <point x="712" y="496"/>
      <point x="872" y="356"/>
      <point x="872" y="176" type="curve"/>
      <point x="872" y="-3"/>
      <point x="712" y="-143"/>
      <point x="478" y="-143" type="curve"/>
    </contour>
    <contour>
      <point x="689" y="131"/>
      <point x="702" y="144"/>
      <point x="702" y="163" type="curve" smooth="yes"/>
      <point x="702" y="180"/>
      <point x="689" y="192"/>
      <point x="672" y="192" type="curve" smooth="yes"/>
      <point x="654" y="192"/>
      <point x="641" y="180"/>
      <point x="641" y="163" type="curve" smooth="yes"/>
      <point x="641" y="144"/>
      <point x="654" y="131"/>
      <point x="672" y="131" type="curve" smooth="yes"/>
    </contour>
    <contour>
      <point x="753" y="225" type="line"/>
      <point x="732" y="275"/>
      <point x="679" y="299"/>
      <point x="621" y="331" type="curve"/>
      <point x="605" y="306" type="line"/>
      <point x="658" y="283"/>
      <point x="713" y="264"/>
      <point x="741" y="218" type="curve"/>
    </contour>
    <contour>
      <point x="366" y="55"/>
      <point x="302" y="30"/>
      <point x="259" y="-3" type="curve"/>
      <point x="261" y="-17" type="line"/>
      <point x="308" y="7"/>
      <point x="372" y="25"/>
      <point x="458" y="25" type="curve" smooth="yes"/>
      <point x="542" y="25"/>
      <point x="629" y="7"/>
      <point x="695" y="-17" type="curve"/>
      <point x="698" y="-3" type="line"/>
      <point x="635" y="30"/>
      <point x="551" y="55"/>
      <point x="458" y="55" type="curve" smooth="yes"/>
    </contour>
  </outline>
</glyph>
<glyph name="f.alt" format="1">
  <advance width="526"/>
  <outline>
    <contour>
      <point x="141" y="414"/>
      <point x="173" y="380"/>
      <point x="211" y="348" type="curve"/>
      <point x="211" y="-1" type="line"/>
      <point x="236" y="-1" type="line"/>
      <point x="236" y="348" type="line"/>
      <point x="198" y="384"/>
      <point x="166" y="418"/>
      <point x="166" y="455" type="curve"/>
      <point x="166" y="499"/>
      <point x="209" y="532"/>
      <point x="285" y="532" type="curve" smooth="yes"/>
      <point x="365" y="532"/>
      <point x="425" y="510"/>
      <point x="470" y="490" type="curve"/>
      <point x="481" y="511" type="line"/>
      <point x="427" y="534"/>
      <point x="365" y="556"/>
      <point x="286" y="556" type="curve" smooth="yes"/>
      <point x="192" y="556"/>
      <point x="141" y="511"/>
      <point x="141" y="455" type="curve"/>
    </contour>
    <contour>
      <point x="50" y="357" type="line"/>
      <point x="50" y="333" type="line"/>
      <point x="418" y="333" type="line"/>
      <point x="418" y="357" type="line"/>
    </contour>
    <contour>
      <point x="50" y="-1" type="line"/>
      <point x="423" y="-1" type="line"/>
      <point x="423" y="22" type="line"/>
      <point x="50" y="22" type="line"/>
    </contour>
    <contour>
      <point x="248" y="723" type="move" name="top"/>
    </contour>
    <contour>
      <point x="248" y="165" type="move" name="bottom"/>
    </contour>
  </outline>
</glyph>
<glyph name="gcommaaccent.alt" format="1">
  <advance width="849"/>
  <outline>
    <contour>
      <point x="603" y="-212"/>
      <point x="699" y="-123"/>
      <point x="698" y="17" type="curve"/>
      <point x="698" y="357" type="line"/>
      <point x="682" y="357" type="line"/>
      <point x="673" y="291" type="line"/>
      <point x="673" y="15" type="line"/>
      <point x="673" y="-108"/>
      <point x="587" y="-188"/>
      <point x="423" y="-188" type="curve" smooth="yes"/>
      <point x="316" y="-188"/>
      <point x="194" y="-156"/>
      <point x="119" y="-121" type="curve"/>
      <point x="112" y="-145" type="line"/>
      <point x="186" y="-178"/>
      <point x="310" y="-212"/>
      <point x="421" y="-212" type="curve" smooth="yes"/>
    </contour>
    <contour>
      <point x="450" y="-12"/>
      <point x="572" y="52"/>
      <point x="688" y="135" type="curve"/>
      <point x="688" y="161" type="line"/>
      <point x="562" y="72"/>
      <point x="433" y="12"/>
      <point x="319" y="12" type="curve"/>
      <point x="185" y="12"/>
      <point x="106" y="72"/>
      <point x="106" y="160" type="curve"/>
      <point x="106" y="271"/>
      <point x="232" y="343"/>
      <point x="385" y="342" type="curve"/>
      <point x="503" y="343"/>
      <point x="617" y="300"/>
      <point x="692" y="259" type="curve"/>
      <point x="692" y="283" type="line"/>
      <point x="619" y="324"/>
      <point x="513" y="366"/>
      <point x="385" y="366" type="curve"/>
      <point x="220" y="366"/>
      <point x="81" y="289"/>
      <point x="81" y="160" type="curve"/>
      <point x="81" y="52"/>
      <point x="176" y="-12"/>
      <point x="319" y="-12" type="curve"/>
    </contour>
    <contour>
      <point x="359" y="481"/>
      <point x="380" y="463"/>
      <point x="409" y="463" type="curve" smooth="yes"/>
      <point x="437" y="463"/>
      <point x="454" y="477"/>
      <point x="454" y="495" type="curve" smooth="yes"/>
      <point x="454" y="512"/>
      <point x="439" y="522"/>
      <point x="415" y="522" type="curve" smooth="yes"/>
      <point x="401" y="522"/>
      <point x="391" y="521"/>
      <point x="380" y="518" type="curve"/>
      <point x="387" y="563"/>
      <point x="420" y="598"/>
      <point x="470" y="644" type="curve"/>
      <point x="458" y="656" type="line"/>
      <point x="397" y="607"/>
      <point x="359" y="553"/>
      <point x="359" y="511" type="curve" smooth="yes"/>
    </contour>
    <contour>
      <point x="410" y="532" type="move" name="top"/>
    </contour>
    <contour>
      <point x="410" y="154" type="move" name="bottom"/>
    </contour>
  </outline>
</glyph>
<glyph name="grAddak.alt" format="1">
  <advance width="0"/>
  <outline>
    <contour>
      <point x="5" y="635" type="curve" smooth="yes"/>
      <point x="-44" y="635"/>
      <point x="-94" y="668"/>
      <point x="-120" y="747" type="curve"/>
      <point x="-139" y="741" type="line"/>
      <point x="-112" y="651"/>
      <point x="-55" y="612"/>
      <point x="5" y="612" type="curve" smooth="yes"/>
      <point x="70" y="612"/>
      <point x="121" y="647"/>
      <point x="148" y="739" type="curve"/>
      <point x="129" y="745" type="line"/>
      <point x="106" y="667"/>
      <point x="60" y="635"/>
    </contour>
    <contour>
      <point x="-199.0" y="489.0" type="move" name="_center"/>
    </contour>
  </outline>
</glyph>
<glyph name="grRAc2" format="1">
  <advance width="0"/>
  <outline>
    <contour>
      <point x="-188" y="30" type="line"/>
      <point x="-213" y="30" type="line"/>
      <point x="-213" y="-135" type="line"/>
      <point x="-188" y="-137" type="line"/>
    </contour>
    <contour>
      <point x="-336" y="-136" type="line"/>
      <point x="-207" y="-136"/>
      <point x="-170" y="-143"/>
      <point x="-5" y="-253" type="curve"/>
      <point x="8" y="-235" type="line"/>
      <point x="-166" y="-122"/>
      <point x="-194" y="-114"/>
      <point x="-333" y="-114" type="curve"/>
    </contour>
  </outline>
</glyph>
<glyph name="hungarumlautcomb" format="1">
  <advance width="511"/>
  <outline>
    <contour>
      <point x="471" y="765" type="line"/>
      <point x="454" y="784" type="line"/>
      <point x="287" y="617" type="line"/>
      <point x="296" y="607" type="line"/>
    </contour>
    <contour>
      <point x="275" y="765" type="line"/>
      <point x="258" y="784" type="line"/>
      <point x="90" y="617" type="line"/>
      <point x="100" y="607" type="line"/>
    </contour>
    <contour>
      <point x="248" y="686" type="move" name="_top"/>
    </contour>
  </outline>
</glyph>
<glyph name="k.alt" format="1">
  <advance width="844"/>
  <outline>
    <contour>
      <point x="686" y="348" type="line"/>
      <point x="642" y="348" type="line"/>
      <point x="227" y="104" type="line"/>
      <point x="227" y="77" type="line"/>
    </contour>
    <contour>
      <point x="420" y="-1" type="line"/>
      <point x="420" y="22" type="line"/>
      <point x="30" y="22" type="line"/>
      <point x="30" y="-1" type="line"/>
    </contour>
    <contour>
      <point x="237" y="-1" type="line"/>
      <point x="237" y="520" type="line"/>
      <point x="212" y="520" type="line"/>
      <point x="212" y="-1" type="line"/>
    </contour>
    <contour>
      <point x="788" y="-1" type="line"/>
      <point x="788" y="22" type="line"/>
      <point x="502" y="22" type="line"/>
      <point x="502" y="-1" type="line"/>
    </contour>
    <contour>
      <point x="696" y="5" type="line"/>
      <point x="440" y="200" type="line"/>
      <point x="413" y="190" type="line"/>
      <point x="661" y="5" type="line"/>
    </contour>
    <contour>
      <point x="237" y="496" type="line"/>
      <point x="237" y="520" type="line"/>
      <point x="30" y="520" type="line"/>
      <point x="30" y="496" type="line"/>
    </contour>
    <contour>
      <point x="768" y="333" type="line"/>
      <point x="768" y="357" type="line"/>
      <point x="490" y="357" type="line"/>
      <point x="490" y="333" type="line"/>
    </contour>
    <contour>
      <point x="475" y="532" type="move" name="top"/>
    </contour>
    <contour>
      <point x="475" y="165" type="move" name="bottom"/>
    </contour>
  </outline>
</glyph>
<glyph name="onesuperior" format="1">
  <advance width="319"/>
  <outline>
    <contour>
      <point x="116" y="512"/>
      <point x="172" y="541"/>
      <point x="192" y="592" type="curve"/>
      <point x="172" y="601" type="line"/>
      <point x="157" y="556"/>
      <point x="107" y="536"/>
      <point x="56" y="531" type="curve"/>
      <point x="59" y="507" type="line"/>
    </contour>
    <contour>
      <point x="290" y="318" type="line"/>
      <point x="290" y="339" type="line"/>
      <point x="55" y="339" type="line"/>
      <point x="55" y="318" type="line"/>
    </contour>
    <contour>
      <point x="195" y="318" type="line"/>
      <point x="195" y="601" type="line"/>
      <point x="172" y="601" type="line"/>
      <point x="172" y="318" type="line"/>
    </contour>
  </outline>
</glyph>
<glyph name="primemod" format="1">
  <advance width="326"/>
  <outline>
    <contour>
      <point x="120" y="328" type="line"/>
      <point x="135" y="324" type="line"/>
      <point x="220" y="549" type="line"/>
      <point x="191" y="556" type="line"/>
    </contour>
  </outline>
</glyph>
<glyph name="tbar.alt" format="1">
  <advance width="525"/>
  <outline>
    <contour>
      <point x="369" y="243" type="line"/>
      <point x="369" y="265" type="line"/>
      <point x="25" y="265" type="line"/>
      <point x="25" y="243" type="line"/>
    </contour>
    <contour>
      <point x="385" y="357" type="line"/>
      <point x="45" y="357" type="line"/>
      <point x="45" y="334" type="line"/>
      <point x="385" y="334" type="line"/>
    </contour>
    <contour>
      <point x="411" y="52" type="line"/>
      <point x="375" y="32"/>
      <point x="316" y="12"/>
      <point x="261" y="12" type="curve" smooth="yes"/>
      <point x="199" y="12"/>
      <point x="157" y="40"/>
      <point x="157" y="123" type="curve"/>
      <point x="157" y="205"/>
      <point x="195" y="321"/>
      <point x="200" y="340" type="curve"/>
      <point x="201" y="347" type="line"/>
      <point x="201" y="456" type="line"/>
      <point x="176" y="456" type="line"/>
      <point x="176" y="348" type="line"/>
      <point x="176" y="341" type="line"/>
      <point x="170" y="321"/>
      <point x="131" y="205"/>
      <point x="131" y="123" type="curve"/>
      <point x="131" y="25"/>
      <point x="182" y="-11"/>
      <point x="261" y="-11" type="curve" smooth="yes"/>
      <point x="319" y="-11"/>
      <point x="379" y="9"/>
      <point x="420" y="30" type="curve"/>
    </contour>
    <contour>
      <point x="261" y="155" type="move" name="bottom"/>
    </contour>
    <contour>
      <point x="261" y="622" type="move" name="top"/>
    </contour>
    <contour>
      <point x="229" y="618" type="move" name="topright"/>
    </contour>
    <contour>
      <point x="261" y="345" type="move" name="center"/>
    </contour>
  </outline>
</glyph>
<glyph name="tcommaaccent.alt" format="1">
  <advance width="483"/>
  <outline>
    <contour>
      <point x="385" y="357" type="line"/>
      <point x="45" y="357" type="line"/>
      <point x="45" y="333" type="line"/>
      <point x="385" y="333" type="line"/>
    </contour>
    <contour>
      <point x="411" y="52" type="line"/>
      <point x="375" y="32"/>
      <point x="316" y="12"/>
      <point x="261" y="12" type="curve" smooth="yes"/>
      <point x="199" y="12"/>
      <point x="157" y="40"/>
      <point x="157" y="123" type="curve"/>
      <point x="157" y="205"/>
      <point x="195" y="320"/>
      <point x="200" y="339" type="curve"/>
      <point x="201" y="347" type="line"/>
      <point x="201" y="456" type="line"/>
      <point x="176" y="456" type="line"/>
      <point x="176" y="348" type="line"/>
      <point x="176" y="341" type="line"/>
      <point x="170" y="320"/>
      <point x="131" y="205"/>
      <point x="131" y="123" type="curve"/>
      <point x="131" y="25"/>
      <point x="182" y="-11"/>
      <point x="261" y="-11" type="curve" smooth="yes"/>
      <point x="319" y="-11"/>
      <point x="379" y="9"/>
      <point x="420" y="30" type="curve"/>
    </contour>
    <contour>
      <point x="311" y="-115"/>
      <point x="291" y="-96"/>
      <point x="261" y="-96" type="curve" smooth="yes"/>
      <point x="234" y="-96"/>
      <point x="217" y="-111"/>
      <point x="217" y="-128" type="curve" smooth="yes"/>
      <point x="217" y="-145"/>
      <point x="233" y="-156"/>
      <point x="256" y="-156" type="curve" smooth="yes"/>
      <point x="269" y="-156"/>
      <point x="280" y="-153"/>
      <point x="291" y="-152" type="curve"/>
      <point x="284" y="-196"/>
      <point x="252" y="-232"/>
      <point x="201" y="-277" type="curve"/>
      <point x="213" y="-289" type="line"/>
      <point x="274" y="-242"/>
      <point x="311" y="-187"/>
      <point x="311" y="-143" type="curve" smooth="yes"/>
    </contour>
    <contour>
      <point x="261" y="345" type="move" name="center"/>
    </contour>
    <contour>
      <point x="261" y="622" type="move" name="top"/>
    </contour>
    <contour>
      <point x="249" y="627" type="move" name="topright"/>
    </contour>
    <contour>
      <point x="261" y="155" type="move" name="bottom"/>
    </contour>
  </outline>
</glyph>
<glyph name="two.alt" format="1">
  <advance width="732"/>
  <outline>
    <contour>
      <point x="407" y="164" type="line" smooth="yes"/>
      <point x="508" y="208"/>
      <point x="594" y="250"/>
      <point x="594" y="338" type="curve" smooth="yes"/>
      <point x="594" y="430"/>
      <point x="506" y="480"/>
      <point x="373" y="480" type="curve" smooth="yes"/>
      <point x="242" y="480"/>
      <point x="141" y="431"/>
      <point x="59" y="368" type="curve"/>
      <point x="74" y="349" type="line"/>
      <point x="154" y="409"/>
      <point x="254" y="457"/>
      <point x="373" y="457" type="curve" smooth="yes"/>
      <point x="502" y="457"/>
      <point x="568" y="411"/>
      <point x="568" y="339" type="curve" smooth="yes"/>
      <point x="568" y="265"/>
      <point x="499" y="230"/>
      <point x="397" y="183" type="curve" smooth="yes"/>
      <point x="40" y="22" type="line"/>
      <point x="64" y="9" type="line"/>
    </contour>
    <contour>
      <point x="636" y="-1" type="line"/>
      <point x="636" y="163" type="line"/>
      <point x="612" y="163" type="line"/>
      <point x="612" y="22" type="line"/>
      <point x="41" y="22" type="line"/>
      <point x="41" y="-1" type="line"/>
    </contour>
  </outline>
</glyph>
<glyph name="zero.slash" format="1">
  <advance width="804"/>
  <outline>
    <contour>
      <point x="584" y="-11"/>
      <point x="744" y="74"/>
      <point x="744" y="234" type="curve"/>
      <point x="744" y="389"/>
      <point x="584" y="480"/>
      <point x="402" y="480" type="curve"/>
      <point x="220" y="480"/>
      <point x="60" y="389"/>
      <point x="60" y="234" type="curve"/>
      <point x="60" y="74"/>
      <point x="220" y="-11"/>
      <point x="402" y="-11" type="curve"/>
    </contour>
    <contour>
      <point x="233" y="12"/>
      <point x="86" y="91"/>
      <point x="86" y="234" type="curve"/>
      <point x="86" y="371"/>
      <point x="233" y="457"/>
      <point x="402" y="457" type="curve"/>
      <point x="573" y="457"/>
      <point x="719" y="371"/>
      <point x="719" y="234" type="curve"/>
      <point x="719" y="91"/>
      <point x="573" y="12"/>
      <point x="402" y="12" type="curve"/>
    </contour>
    <contour>
      <point x="435" y="202"/>
      <point x="451" y="215"/>
      <point x="451" y="233" type="curve"/>
      <point x="451" y="251"/>
      <point x="435" y="264"/>
      <point x="403" y="264" type="curve"/>
      <point x="373" y="264"/>
      <point x="356" y="251"/>
      <point x="356" y="233" type="curve"/>
      <point x="356" y="215"/>
      <point x="373" y="202"/>
      <point x="403" y="202" type="curve"/>
    </contour>
  </outline>
</glyph>
